<?xml version="1.0" encoding="utf-8"?>
<!-- Generator: Adobe Illustrator 21.0.0, SVG Export Plug-In . SVG Version: 6.00 Build 0)  -->
<svg version="1.1" id="Layer_1" xmlns="http://www.w3.org/2000/svg" xmlns:xlink="http://www.w3.org/1999/xlink" x="0px" y="0px"
	 viewBox="0 0 1024 768" style="enable-background:new 0 0 1024 768;" xml:space="preserve">
<style type="text/css">
	.st0{fill:#B51F63;}
	.st1{fill:#EFCC5E;}
	.st2{opacity:0.41;fill:#BA235F;}
	.st3{fill:#D96A96;}
	.st4{fill:#F9C7DE;}
	.st5{fill:#F9DCEA;}
	.st6{fill:#B78909;}
	.st7{fill:#F0F0F0;}
	.st8{fill:#2F518B;}
	.st9{fill:#476B9E;}
	.st10{fill:#F4F4F4;}
	.st11{opacity:0.15;}
	.st12{fill:#E27AA5;}
	.st13{fill:#353534;}
	.st14{fill:#474747;}
	.st15{fill:#C12975;}
	.st16{fill:none;stroke:#B51F63;stroke-linecap:round;stroke-linejoin:round;stroke-miterlimit:10;}
	.st17{fill:#C49D6E;}
	.st18{clip-path:url(#SVGID_2_);}
	.st19{fill:#BA235F;}
	.st20{fill:#CC2E6E;}
	.st21{fill:none;stroke:#F0F0F0;stroke-width:6;stroke-linecap:round;stroke-linejoin:round;stroke-miterlimit:10;}
	.st22{clip-path:url(#SVGID_2_);fill:#F9C7DE;}
	.st23{fill:#F78BB7;}
	.st24{fill:#FC97C5;}
	.st25{clip-path:url(#SVGID_2_);fill:#F9E8F1;}
	.st26{fill:none;stroke:#AA8153;stroke-miterlimit:10;}
	.st27{fill:#EDAC5F;}
	.st28{fill:#F7BB79;}
	.st29{fill:#33D4FF;}
	.st30{fill:#58DBF9;}
	.st31{fill:#F27755;}
	.st32{fill:#F9896E;}
	.st33{clip-path:url(#SVGID_2_);fill:#FCD9EB;}
	.st34{clip-path:url(#SVGID_4_);}
	.st35{fill:#F7D26B;}
	.st36{fill:#E8C45D;}
	.st37{clip-path:url(#SVGID_6_);}
	.st38{fill:#2ECAEF;}
	.st39{fill:#C94881;}
	.st40{fill:#B7427A;}
	.st41{fill:#CE4D8B;}
	.st42{fill:#D35390;}
	.st43{clip-path:url(#SVGID_2_);fill:#F78BB7;}
	.st44{clip-path:url(#SVGID_2_);fill:#F0F0F0;}
	.st45{clip-path:url(#SVGID_2_);fill:#2F518B;}
	.st46{clip-path:url(#SVGID_2_);fill:#D96A96;}
	.st47{clip-path:url(#SVGID_2_);fill:#476B9E;}
	.st48{clip-path:url(#SVGID_2_);fill:#F4F4F4;}
	.st49{opacity:0.15;clip-path:url(#SVGID_2_);}
	.st50{clip-path:url(#SVGID_2_);fill:#E27AA5;}
	.st51{fill:#FCFCFC;}
	.st52{fill:#E17EB0;}
	.st53{fill:#005DA8;}
	.st54{fill:#FEFEFE;}
	.st55{fill:#015DA9;}
	.st56{fill:#F7FAFC;}
	.st57{clip-path:url(#SVGID_2_);fill:none;stroke:#B51F63;stroke-linecap:round;stroke-linejoin:round;stroke-miterlimit:10;}
	
		.st58{clip-path:url(#SVGID_2_);fill:none;stroke:#B51F63;stroke-width:2;stroke-linecap:round;stroke-linejoin:round;stroke-miterlimit:10;}
	.st59{fill:#3F1608;}
	.st60{fill:#FF3F12;}
	.st61{fill:#FF8871;}
	.st62{fill:#561C0C;}
	.st63{fill:#A6EDAA;}
	.st64{fill:#C0F9C1;}
	.st65{fill:#D4FCD5;}
	.st66{fill:#F7F7F7;}
	.st67{fill:#D65B7E;}
	.st68{fill:#DD668E;}
	.st69{fill:#FFFFFF;}
</style>
<circle class="st0" cx="1158.4" cy="363.1" r="31.1"/>
<circle class="st0" cx="1235.2" cy="363.1" r="31.1"/>
<circle class="st0" cx="1235.2" cy="402" r="31.1"/>
<circle class="st0" cx="1235.2" cy="440.9" r="31.1"/>
<circle class="st0" cx="1317.6" cy="363.1" r="31.1"/>
<circle class="st0" cx="1317.6" cy="402" r="31.1"/>
<circle class="st0" cx="1317.6" cy="440.9" r="31.1"/>
<path class="st1" d="M1479,401c0,0-6,24,20,18s28-8,35-4s19,8,26,1s12-20,23-15s27-1,27-8s9-12,21-13s28-9,17-18
	s-12.5-16.8-25.3-14.4C1610,350,1534,386,1515,375S1479,401,1479,401z"/>
<ellipse class="st2" cx="582" cy="1281.5" rx="195.5" ry="25.5"/>
<path class="st3" d="M1184,882h240v34.9c0,0-7.5,9.6-9.5-4.4s-10-15-11-7s-10,8-10-9s-26-3-12,43c0,0-1,13-12,7s5-41-3-48
	s-13,10-13,17s-13,14-14,0s-4-30-11-24s1,27-7,24s-5-6-7-18s-12-1-10,10s-15,15-17-10c0,0-5-10-8,2s4,25-2,29s-10,1-9-23s-9-11-6,2
	s-17,13-15-2s-13-17-16-13s-11,15-22,5s-15-4-20,0s-9.3-1.1-9.3-1.1L1184,882z"/>
<path class="st4" d="M-241.3,1160.9c0.2-0.6,0.7-0.3,1.2-0.2c4.2,1.1,8.4,0.6,12.6,0.5c3.3-0.1,6.5-0.4,9.8-0.7
	c4.9-0.4,9.8-0.7,14.7-1.3c2.3-0.3,3.8-1.7,4.7-3.9c0.9-2.1,1.5-4.4,2.7-6.4c2.3-3.8,5.7-5.5,10.1-5.8c4.5-0.4,8.3,1.2,11.9,3.6
	c1.1,0.7,1.5,0.6,1.5-0.8c-0.1-3.7,1.8-6.1,4.7-8.1c1-0.7,2.1-0.8,3.2-0.9c2.4-0.2,4.8-0.7,7.2-0.8c3.5-0.2,5.9,1.6,7.6,4.4
	c0.6,1,1.4,1.8,1.7,3c0.2,0.6,0.7,0.8,1.3,0.8c0.9,0,1.8,0,2.7,0c3.5,0,5.4,1.8,5.3,5.3c0,1.2,0.3,1.8,1.6,1.6
	c2.9-0.4,5.2,1.1,7.5,2.4c1.3,0.8,2.9,1.2,3.5,2.7c0.7,1.6,1.9,2.6,3.1,3.6c0.6,0.5,1.3,0.9,2.1,0.9c2.3,0.1,4.7,0.2,7,0.3
	c0.5,0,1.1,0,1.1,0.7c0,0.7-0.5,1.1-1.1,1c-2.7-0.2-5.2,1-7.8,0.7c-2.3-0.2-4.6,0.4-6.9,0.7c-1.9,0.2-3.3,1.7-5.1,2.3
	c-3.6,3.2-7.9,3.7-12.3,2.5c-5.1-1.5-10.1-1.5-15.3-0.6c-4.6,0.8-9.2,0.9-13.8-0.6c-4.5-1.5-9-0.6-13.4,0.9
	c-1.8,0.6-3.6,1.5-5.6,1.6c-0.7,0-1.5,0.1-2.2,0c-3.3-0.8-6.5-1.6-9.7-2.6c-2.3-0.7-4.7-0.7-6.9-1.8c-2.2-0.2-4.2-1.2-6.2-1.7
	c-2.5-0.6-5.2-0.7-7.7-1c-0.4-0.1-0.9,0.1-1.3-0.3c-2.6,0.3-5.1-0.6-7.7-0.6c-1.2,0-2.4-0.1-3.6,0.2c-0.5,0.1-1.1,0.2-1.6-0.2
	C-240.9,1161.8-241.4,1161.5-241.3,1160.9z"/>
<path class="st5" d="M471.5,1052.6c-0.3-0.9-1.2-0.5-1.8-0.3c-6.6,1.7-13.3,1-20,0.8c-5.2-0.2-10.4-0.7-15.6-1.1
	c-7.8-0.6-15.6-1.1-23.3-2c-3.6-0.4-6.1-2.8-7.5-6.1c-1.5-3.4-2.3-7-4.3-10.2c-3.7-6-9.1-8.7-16.1-9.3c-7.2-0.6-13.1,2-18.9,5.7
	c-1.8,1.2-2.5,0.9-2.4-1.3c0.2-5.9-2.9-9.7-7.5-12.9c-1.6-1.1-3.3-1.3-5.1-1.5c-3.8-0.4-7.6-1.1-11.5-1.3c-5.6-0.3-9.3,2.5-12,6.9
	c-0.9,1.5-2.2,2.9-2.7,4.7c-0.3,1-1.1,1.2-2.1,1.2c-1.4,0-2.8,0-4.3,0c-5.5,0-8.6,2.9-8.5,8.4c0,1.9-0.5,2.8-2.5,2.5
	c-4.6-0.6-8.2,1.7-11.9,3.9c-2,1.2-4.6,2-5.5,4.2c-1,2.6-3,4.1-5,5.7c-1,0.9-2,1.4-3.4,1.4c-3.7,0.1-7.4,0.3-11.1,0.5
	c-0.8,0-1.7,0.1-1.8,1.1c-0.1,1,0.8,1.7,1.7,1.6c4.2-0.4,8.2,1.6,12.5,1.1c3.7-0.3,7.3,0.6,10.9,1c3.1,0.3,5.3,2.6,8,3.7
	c5.7,5.1,12.6,5.9,19.5,3.9c8.1-2.3,16.1-2.4,24.3-1c7.3,1.3,14.6,1.5,21.9-0.9c7.2-2.3,14.3-0.9,21.3,1.4c2.9,1,5.7,2.4,8.8,2.5
	c1.2,0.1,2.3,0.2,3.5-0.1c5.2-1.2,10.4-2.5,15.5-4.1c3.6-1.1,7.5-1.2,10.9-2.8c3.5-0.4,6.6-1.9,9.9-2.7c4-1,8.2-1.1,12.3-1.6
	c0.7-0.1,1.4,0.1,2-0.4c4.1,0.5,8.1-1,12.2-1c1.9,0,3.8-0.1,5.7,0.3c0.8,0.2,1.8,0.3,2.5-0.3C471,1054,471.8,1053.5,471.5,1052.6z"
	/>
<path class="st1" d="M1453.2,746.3c10.8-17.8,16.8-38.1,16.8-59.6c0-71.8-68.1-130-152-130c-83.9,0-152,58.3-152,130.1
	c0,21.7,6.2,42.1,17.2,60.1c-17.7,9.1-29.4,25.7-29.4,44.7c0,28.8,27.3,52.2,61,52.2c22.3,0,41.9-10.3,52.5-25.6
	c10.6,15.3,30.2,25.6,52.5,25.6c21.7,0,40.7-9.7,51.5-24.2c10.8,14.6,29.8,24.2,51.5,24.2c33.7,0,61-23.4,61-52.2
	C1483.8,772.2,1471.5,755.3,1453.2,746.3z"/>
<path class="st6" d="M1171.5,721.5c0,0-30.3-77,50.1-135.2s161.8-21,188.4-3.3c24,16,77.1,61.1,54.5,138.5S1467,684,1450,667
	s-1,25-11,44s-32,43-25-31s-21-66-22-43s6,108-15,91s7-56-9-57s-11,54-32,45s-26-24-29-41s-38-64-41-35s1,75-8,88s-35,7-23-67
	s-43,5-25,46s-38,39-29-7S1159,696.1,1171.5,721.5z"/>
<rect x="495" y="1007" class="st4" width="231" height="24"/>
<ellipse class="st4" cx="544.5" cy="1030.5" rx="16.5" ry="14.5"/>
<ellipse class="st4" cx="577.5" cy="1030.5" rx="16.5" ry="14.5"/>
<ellipse class="st4" cx="610.5" cy="1030.5" rx="16.5" ry="14.5"/>
<ellipse class="st4" cx="643.5" cy="1030.5" rx="16.5" ry="14.5"/>
<ellipse class="st4" cx="676.5" cy="1030.5" rx="16.5" ry="14.5"/>
<ellipse class="st4" cx="709.5" cy="1030.5" rx="16.5" ry="14.5"/>
<g>
	<path class="st4" d="M1279,1011.3l0,11.4c0.1,3.7,3.6,6.6,7.8,6.6s7.7-2.9,7.8-6.6l0-11.4H1279z"/>
	<path class="st4" d="M1294.6,1011.3l0,11.4c0.1,3.7,3.6,6.6,7.8,6.6s7.7-2.9,7.8-6.6l0-11.4H1294.6z"/>
	<path class="st4" d="M1310.3,1011.3l0,11.4c0.1,3.7,3.6,6.6,7.8,6.6c4.2,0,7.7-2.9,7.8-6.6l0-11.4H1310.3z"/>
	<path class="st4" d="M1325.9,1011.3l0,11.4c0.1,3.7,3.6,6.6,7.8,6.6c4.2,0,7.7-2.9,7.8-6.6l0-11.4H1325.9z"/>
	<path class="st4" d="M1341.5,1011.3l0,11.4c0.1,3.7,3.6,6.6,7.8,6.6c4.2,0,7.7-2.9,7.8-6.6l0-11.4H1341.5z"/>
	<path class="st4" d="M1357.2,1011.3l0,11.4c0.1,3.7,3.6,6.6,7.8,6.6c4.2,0,7.7-2.9,7.8-6.6l0-11.4H1357.2z"/>
</g>
<g>
	<polygon class="st7" points="826.8,950.5 811.8,1029.5 791.8,1038.5 791.8,1089.5 1066.8,1089.5 1066.8,950.5 	"/>
	<polygon class="st8" points="829.8,970.5 817.8,1031.5 844.8,1031.5 844.8,970.5 	"/>
	<rect x="852.7" y="970.5" class="st8" width="37.2" height="61"/>
	<polygon class="st3" points="826.8,950.5 1066.8,950.5 1066.8,961 824.8,961 	"/>
	<polygon class="st9" points="844.8,970.5 817.8,1031.5 820.9,1031.5 844.8,977.6 	"/>
	<polygon class="st9" points="852.7,1023.9 882.4,970.5 886.5,970.5 852.7,1031.5 	"/>
	<polygon class="st9" points="889.8,975.3 858.8,1031.5 865,1031.5 889.8,984.6 	"/>
	<polygon class="st10" points="1066.8,961 972.4,1057.5 1066.8,1057.5 	"/>
	<rect x="932.7" y="970.5" class="st8" width="118.2" height="61"/>
	<g class="st11">
		<path class="st9" d="M929.2,986.5c0.1,2.9,3.6,5.2,7.8,5.2c4.2,0,7.7-2.3,7.8-5.2l0-8.9h-15.6L929.2,986.5z"/>
		<path class="st9" d="M944.9,986.5c0.1,2.9,3.6,5.2,7.8,5.2c4.2,0,7.7-2.3,7.8-5.2l0-8.9h-15.6L944.9,986.5z"/>
		<path class="st9" d="M960.5,986.5c0.1,2.9,3.6,5.2,7.8,5.2s7.7-2.3,7.8-5.2l0-8.9h-15.6L960.5,986.5z"/>
		<path class="st9" d="M976.1,986.5c0.1,2.9,3.6,5.2,7.8,5.2s7.7-2.3,7.8-5.2l0-8.9h-15.6L976.1,986.5z"/>
		<path class="st9" d="M991.8,986.5c0.1,2.9,3.6,5.2,7.8,5.2s7.7-2.3,7.8-5.2l0-8.9h-15.6L991.8,986.5z"/>
		<path class="st9" d="M1007.4,986.5c0.1,2.9,3.6,5.2,7.8,5.2s7.7-2.3,7.8-5.2l0-8.9h-15.6L1007.4,986.5z"/>
		<path class="st9" d="M1023,986.5c0.1,2.9,3.6,5.2,7.8,5.2c4.2,0,7.7-2.3,7.8-5.2l0-8.9H1023L1023,986.5z"/>
		<path class="st9" d="M1038.6,977.6l0,8.9c0.1,2.9,3.6,5.2,7.8,5.2c4.2,0,7.7-2.3,7.8-5.2l0-8.9H1038.6z"/>
	</g>
	<rect x="929.2" y="1027.4" class="st3" width="125.1" height="4.1"/>
	<g>
		<path class="st3" d="M929.2,970.5l0,8.9c0.1,2.9,3.6,5.2,7.8,5.2s7.7-2.3,7.8-5.2l0-8.9H929.2z"/>
		<path class="st4" d="M944.9,970.5l0,8.9c0.1,2.9,3.6,5.2,7.8,5.2c4.2,0,7.7-2.3,7.8-5.2l0-8.9H944.9z"/>
		<path class="st3" d="M960.5,970.5l0,8.9c0.1,2.9,3.6,5.2,7.8,5.2c4.2,0,7.7-2.3,7.8-5.2l0-8.9H960.5z"/>
		<path class="st4" d="M976.1,970.5l0,8.9c0.1,2.9,3.6,5.2,7.8,5.2c4.2,0,7.7-2.3,7.8-5.2l0-8.9H976.1z"/>
		<path class="st3" d="M991.8,970.5l0,8.9c0.1,2.9,3.6,5.2,7.8,5.2s7.7-2.3,7.8-5.2l0-8.9H991.8z"/>
		<path class="st4" d="M1007.4,970.5l0,8.9c0.1,2.9,3.6,5.2,7.8,5.2s7.7-2.3,7.8-5.2l0-8.9H1007.4z"/>
		<path class="st3" d="M1023,970.5l0,8.9c0.1,2.9,3.6,5.2,7.8,5.2c4.2,0,7.7-2.3,7.8-5.2l0-8.9H1023z"/>
		<path class="st4" d="M1038.6,970.5l0,8.9c0.1,2.9,3.6,5.2,7.8,5.2c4.2,0,7.7-2.3,7.8-5.2l0-8.9H1038.6z"/>
	</g>
	<polygon class="st12" points="1066.8,950.5 1066.8,961 991.8,961 1050.8,950.5 	"/>
	<g>
		<rect x="787.3" y="1048.8" class="st3" width="283.6" height="14"/>
		<rect x="787.3" y="1053.2" class="st7" width="283.6" height="5"/>
	</g>
	<g>
		<circle class="st13" cx="1023.8" cy="1084.5" r="27"/>
		<circle class="st7" cx="1023.8" cy="1084.5" r="15"/>
		<path class="st14" d="M1031.7,1061.4c0,0,12.5,2.5,16.3,18.6C1048.1,1080.1,1043.8,1068.8,1031.7,1061.4z"/>
	</g>
	<g>
		<circle class="st13" cx="831.8" cy="1083.5" r="27"/>
		<circle class="st7" cx="831.8" cy="1083.5" r="15"/>
		<path class="st14" d="M839.6,1060.2c0,0,12.5,2.5,16.3,18.6C855.9,1078.9,851.7,1067.6,839.6,1060.2z"/>
	</g>
	<g>
		<polygon class="st0" points="885.4,940.7 885.4,943.2 883,943.2 883,946.9 885.4,946.9 885.4,952 882,952 882,954.2 891.9,954.2 
			891.9,952 888.3,952 888.3,946.8 890.9,946.8 890.9,943.2 888.3,943.2 888.3,940.7 		"/>
		<rect x="883" y="944.6" class="st15" width="7.9" height="0.9"/>
	</g>
	<g>
		<polygon class="st0" points="1015,936.7 1015,943.2 1012.6,943.2 1012.6,946.9 1015,946.9 1015,952 1011.6,952 1011.6,954.2 
			1021.5,954.2 1021.5,952 1018,952 1018,946.8 1020.5,946.8 1020.5,943.2 1018,943.2 1018,936.7 		"/>
		<rect x="1012.6" y="944.6" class="st15" width="7.9" height="0.9"/>
	</g>
	<line class="st16" x1="909.5" y1="970.5" x2="909.5" y2="1040.7"/>
	<line class="st16" x1="844.8" y1="1037.7" x2="844.8" y2="1045"/>
</g>
<path class="st17" d="M1353.2,493.8l24.6,75.2c0.4,1.1-0.2,2.4-1.3,2.8c-6.1,2.4-26,8.5-50.8,0c-1.2-0.4-1.8-1.7-1.4-2.8l24.7-75.2
	C1349.6,491.8,1352.6,491.8,1353.2,493.8z"/>
<g>
	<defs>
		<rect id="SVGID_1_" y="0.1" width="1024" height="768.6"/>
	</defs>
	<clipPath id="SVGID_2_">
		<use xlink:href="#SVGID_1_"  style="overflow:visible;"/>
	</clipPath>
	<g class="st18">
		<ellipse class="st19" cx="926.7" cy="486.3" rx="27.2" ry="42.9"/>
		<path class="st20" d="M954.9,486.3c0,23.7-13.6,40.5-27.2,42.9c-0.2,0-0.1-85.8,0-85.8C940.3,443.5,954.9,462.6,954.9,486.3z"/>
		<g>
			<line class="st21" x1="927.2" y1="462.1" x2="927.2" y2="565.2"/>
			<line class="st21" x1="927.2" y1="488" x2="913.2" y2="465.4"/>
			<line class="st21" x1="927.9" y1="497.4" x2="937.2" y2="488"/>
			<line class="st21" x1="927.2" y1="524.8" x2="913.9" y2="504.6"/>
		</g>
	</g>
	<g class="st18">
		<ellipse class="st19" cx="805.3" cy="471.3" rx="43.3" ry="61"/>
		<path class="st20" d="M848.5,471.3c0,33.7-19.4,61-43.3,61c-0.3,0-0.3-122,0-122C829.2,410.3,848.5,437.6,848.5,471.3z"/>
		<line class="st21" x1="805" y1="455.3" x2="805" y2="573.3"/>
		<line class="st21" x1="794.4" y1="468.5" x2="804.7" y2="483.3"/>
		<line class="st21" x1="805.6" y1="504.3" x2="828" y2="480.3"/>
		<line class="st21" x1="804.9" y1="525.2" x2="781" y2="483.3"/>
	</g>
	<g class="st18">
		<ellipse class="st19" cx="391" cy="467" rx="47" ry="83"/>
		<path class="st20" d="M438,467c0,45.8-21,83-47,83V384C417,384,438,421.2,438,467z"/>
		<g>
			<line class="st21" x1="391" y1="433" x2="391" y2="588"/>
			<line class="st21" x1="391" y1="472" x2="370" y2="438"/>
			<line class="st21" x1="392" y1="486.2" x2="406" y2="472"/>
			<line class="st21" x1="391" y1="527.4" x2="371" y2="497"/>
		</g>
	</g>
	<path class="st22" d="M0,289.3c0,0,177.7,1.2,200.3-2.5C223,283.1,418,293,350,304.2c-68,11.2-135-3.7-124,12.4s106.3,17.9,77,26.1
		c-40,11.2-303,5-303,5V289.3z"/>
	<g class="st18">
		<path class="st23" d="M1024,568.7c0,0-572.5-11.7-762,22.4c-13.1,2.4-128.9,29.3-4.9,45.7c124,16.4,254.9,30.5,173.8,64.4
			c-81.1,34-143.5,66.8,26.5,66.8c141.1,0,566.6-5.2,566.6-5.2V568.7z"/>
		<path class="st24" d="M1024,575.6c0,0-519.2-9.8-661.5,18.7c-9.8,2-96.7,24.4-3.7,38.1s191.3,25.4,130.4,53.7s-105,75.1,21.5,81.9
			c105.8,5.7,513.2,0,513.2,0V575.6z"/>
	</g>
	<path class="st22" d="M1024,108c0,0-233-8-262,7s55,16,90,25s92.7,26.9,0,26c-89.3-0.9-214,8.1-158,22c55.9,13.8,157,12,204,9
		s126,1,126,1V108z"/>
	<path class="st25" d="M258.9,185.5c0.3-1.3,0.5-2.6,0.5-4c0-9.7-7.9-17.6-17.6-17.6c-6.1,0-11.5,3.1-14.6,7.8
		c-2.1-1.6-4.7-2.6-7.6-2.6c-6.8,0-12.4,5.5-12.4,12.4c0,0.6,0.1,1.3,0.2,1.9c-3.2,2.4-5.4,6.2-5.4,10.5c0,7.2,5.9,13,13,13H249
		c7.2,0,13-5.9,13-13C262,190.7,260.8,187.8,258.9,185.5z"/>
	<path class="st25" d="M655.1,363.2c0.3-1.3,0.5-2.6,0.5-4c0-9.7-7.9-17.6-17.6-17.6c-6.1,0-11.5,3.1-14.6,7.8
		c-2.1-1.6-4.7-2.6-7.6-2.6c-6.8,0-12.4,5.5-12.4,12.4c0,0.6,0.1,1.3,0.2,1.9c-3.2,2.4-5.4,6.2-5.4,10.5c0,7.2,5.9,13,13,13h33.9
		c7.2,0,13-5.9,13-13C658.2,368.4,657,365.5,655.1,363.2z"/>
	<path class="st25" d="M972.6,275.4c0.2-1,0.4-2,0.4-3.1c0-7.4-6-13.5-13.5-13.5c-4.7,0-8.8,2.4-11.2,6c-1.6-1.2-3.6-2-5.8-2
		c-5.2,0-9.5,4.2-9.5,9.5c0,0.5,0,1,0.1,1.4c-2.5,1.8-4.1,4.8-4.1,8c0,5.5,4.5,10,10,10h26c5.5,0,10-4.5,10-10
		C975,279.4,974.1,277.2,972.6,275.4z"/>
	<path class="st25" d="M199.8,455.4c0.4-1.8,0.6-3.6,0.6-5.5c0-13.3-10.8-24.1-24.1-24.1c-8.3,0-15.7,4.2-20,10.7
		c-2.9-2.2-6.4-3.5-10.3-3.5c-9.4,0-16.9,7.6-16.9,16.9c0,0.9,0.1,1.7,0.2,2.6c-4.4,3.3-7.3,8.5-7.3,14.4c0,9.8,8,17.8,17.8,17.8
		h46.3c9.8,0,17.8-8,17.8-17.8C204,462.6,202.4,458.6,199.8,455.4z"/>
	<g class="st18">
		<g>
			<line class="st26" x1="448.1" y1="254.2" x2="456.3" y2="293.3"/>
			<line class="st26" x1="467.7" y1="255" x2="468.5" y2="291.7"/>
			<line class="st26" x1="491.3" y1="249.3" x2="483.8" y2="293.8"/>
			<path class="st17" d="M455.4,291c5.6-1.1,16.9-2.5,29.9,0.1c1.9,0.4,3.2,2.3,2.8,4.2l-3.7,18.7c-0.3,1.7-1.8,2.9-3.5,2.9h-20.2
				c-1.7,0-3.1-1.1-3.5-2.8l-4.5-18.7C452.2,293.4,453.4,291.4,455.4,291z"/>
			<path class="st27" d="M499.6,243.7c-3.2-3.8-1.6-3.8-5.2-4.4c3.2-5.3,4.8-11.5,4.3-18.2c-1.1-15.3-13.5-27.8-28.9-28.8
				c-18.2-1.2-33.3,13.2-33.3,31.1c0,6.5,2,12.5,5.4,17.4c-5.1,1.9-5.7,5.4-5.7,5.4s-4.2,9,6.5,8.6c10.7-0.4,7.6,2,10.1,4.1
				c2.4,2.1,6.9,4.6,10.1,2.4c3.3-2.2,6.2-6.9,10.2-4.1c3.9,2.8,10.7,1.7,11.2-1.1c0.5-2.7,2.4-7,7.2-6.5
				C496.3,250,503.2,248.1,499.6,243.7z"/>
			<line class="st26" x1="457.1" y1="290.7" x2="461.8" y2="316.8"/>
			<line class="st26" x1="464.4" y1="289.8" x2="466" y2="316.8"/>
			<line class="st26" x1="472.8" y1="289.8" x2="471.9" y2="316.8"/>
			<line class="st26" x1="479.6" y1="290.1" x2="476.6" y2="316.8"/>
			<line class="st26" x1="485.3" y1="291" x2="480.9" y2="316.8"/>
			<path class="st26" d="M452.9,296.6c0,0,18.4-5.2,34.6,0"/>
			<path class="st26" d="M454.7,303.9c0,0,17.1-4.1,31.6,0.4"/>
			<path class="st26" d="M456.8,312.7c0,0,14.6-4.1,27.8,0"/>
		</g>
		<path class="st28" d="M452.3,196.3c0,0,29.3,7.4,45.5,35.2c0,0,5.9-17.6-8.9-31.1C473.9,186.8,456.2,193.6,452.3,196.3z"/>
	</g>
	<g class="st18">
		<g>
			<line class="st26" x1="61.9" y1="578.7" x2="67.2" y2="603.9"/>
			<line class="st26" x1="74.5" y1="579.4" x2="75" y2="602.9"/>
			<line class="st26" x1="89.5" y1="575.8" x2="84.7" y2="604.2"/>
			<path class="st17" d="M66.7,602.4c3.5-0.7,10.8-1.6,19.1,0c1.2,0.2,2,1.5,1.8,2.7l-2.4,11.9c-0.2,1.1-1.2,1.8-2.2,1.8H70
				c-1.1,0-2-0.7-2.2-1.8l-2.9-11.9C64.6,603.9,65.4,602.7,66.7,602.4z"/>
			<path class="st29" d="M94.8,572.3c-2-2.5-1-2.4-3.3-2.8c2-3.4,3.1-7.4,2.8-11.6c-0.7-9.8-8.6-17.7-18.4-18.4
				c-11.6-0.8-21.2,8.4-21.2,19.8c0,4.1,1.3,7.9,3.4,11.1c-3.2,1.2-3.7,3.4-3.7,3.4s-2.7,5.7,4.1,5.5c6.8-0.2,4.9,1.3,6.4,2.6
				c1.6,1.3,4.4,2.9,6.5,1.5c2.1-1.4,4-4.4,6.5-2.6c2.5,1.8,6.8,1.1,7.2-0.7c0.3-1.8,1.6-4.5,4.6-4.1
				C92.7,576.3,97.1,575.1,94.8,572.3z"/>
			<line class="st26" x1="67.7" y1="602.2" x2="70.7" y2="618.9"/>
			<line class="st26" x1="72.4" y1="601.7" x2="73.4" y2="618.9"/>
			<line class="st26" x1="77.7" y1="601.7" x2="77.2" y2="618.9"/>
			<line class="st26" x1="82" y1="601.9" x2="80.2" y2="618.9"/>
			<line class="st26" x1="85.7" y1="602.5" x2="82.9" y2="618.9"/>
			<path class="st26" d="M65.1,606c0,0,11.7-3.3,22.1,0"/>
			<path class="st26" d="M66.2,610.7c0,0,10.9-2.6,20.2,0.2"/>
			<path class="st26" d="M67.5,616.3c0,0,9.3-2.6,17.7,0"/>
		</g>
		<path class="st30" d="M64.6,542c0,0,18.7,4.7,29,22.5c0,0,3.8-11.2-5.7-19.9S67.2,540.3,64.6,542z"/>
	</g>
	<g class="st18">
		<g>
			<line class="st26" x1="775.5" y1="309.7" x2="782.2" y2="342"/>
			<line class="st26" x1="791.6" y1="310.6" x2="792.2" y2="340.7"/>
			<line class="st26" x1="810.9" y1="306" x2="804.8" y2="342.4"/>
			<path class="st17" d="M781.5,340.1c4.5-0.9,13.8-2.1,24.5,0c1.6,0.3,2.6,1.9,2.3,3.5l-3.1,15.3c-0.3,1.4-1.5,2.4-2.9,2.4h-16.6
				c-1.4,0-2.5-0.9-2.9-2.3l-3.7-15.3C778.9,342.1,779.9,340.4,781.5,340.1z"/>
			<path class="st31" d="M817.7,301.4c-2.6-3.1-1.3-3.1-4.2-3.6c2.6-4.3,3.9-9.4,3.6-14.9c-0.9-12.6-11.1-22.7-23.6-23.6
				c-14.9-1-27.3,10.8-27.3,25.4c0,5.3,1.6,10.2,4.4,14.3c-4.2,1.6-4.7,4.4-4.7,4.4s-3.4,7.3,5.3,7c8.7-0.3,6.2,1.6,8.2,3.4
				c2,1.7,5.6,3.8,8.3,1.9c2.7-1.8,5.1-5.7,8.3-3.4s8.7,1.4,9.2-0.9c0.4-2.3,2-5.8,5.9-5.3C815,306.6,820.7,305,817.7,301.4z"/>
			<line class="st26" x1="782.9" y1="339.9" x2="786.7" y2="361.3"/>
			<line class="st26" x1="788.9" y1="339.2" x2="790.2" y2="361.3"/>
			<line class="st26" x1="795.7" y1="339.2" x2="795" y2="361.3"/>
			<line class="st26" x1="801.3" y1="339.4" x2="798.9" y2="361.3"/>
			<line class="st26" x1="806" y1="340.2" x2="802.4" y2="361.3"/>
			<path class="st26" d="M779.5,344.7c0,0,15-4.3,28.3,0"/>
			<path class="st26" d="M780.9,350.7c0,0,14-3.4,25.9,0.3"/>
			<path class="st26" d="M782.7,357.9c0,0,12-3.3,22.8,0"/>
		</g>
		<path class="st32" d="M779,262.6c0,0,24,6,37.2,28.9c0,0,4.8-14.4-7.3-25.5C796.7,254.8,782.2,260.4,779,262.6z"/>
	</g>
	<path class="st33" d="M1024,120.1c0,0-229.8-12.9-199,0s149.9,17.5,151,28.9s-59.6,15.1-85.7,25.8c-37.4,15.3,92.9,5.1,133.7,14.1
		V120.1z"/>
	<path class="st33" d="M0,296.6c0,0,204.1-5.4,225.1-1.2c21,4.2-133.8,3.9-152.5,8.9s76.6,9.8,89.5,21.1C175.1,336.7,0,335,0,335
		V296.6z"/>
	<path class="st22" d="M0,683.7c0,0,121.3,0.8,136.7-1.7s148.6,4.3,102.2,11.9s-92.1-2.5-84.6,8.5c7.5,11,72.6,12.2,52.6,17.8
		C179.5,727.8,0,723.6,0,723.6V683.7z"/>
	<path class="st33" d="M0,688.7c0,0,139.3-3.7,153.7-0.8c14.3,2.9-91.4,2.7-104.1,6.1s52.3,6.7,61.1,14.4S0,714.9,0,714.9V688.7z"/>
	<g class="st18">
		<g>
			<g>
				<path class="st1" d="M266.7,600.1c3.6-3,33.4-5.9,36.6-6c-0.7-2.6-1.2-5.3-1.2-8.2c0-16.5,13.6-29.8,30.2-29.5
					c15.6,0.4,28.3,13,28.8,28.6c0.2,7.9,0.3,11.1-4.5,16.5c7.3-0.4,16.2,4.2,21.6,4.8c10,1.2-1.2,14.6-11.3,12.3
					c-10-2.3-24.9,0-27.6,1.5c-2.7,1.5-7.3,3.1-10,0.4c-2.7-2.7-12.9-3.8-13.7,0.8c-1.3,7.5-12.4,7.9-20.5,5.5
					c-14.6-4.4,2.4-16.6-1.4-19.2C286.1,602.5,262.4,603.6,266.7,600.1z"/>
				<g>
					<path class="st17" d="M371.2,500.2l-7.7,83c-0.1,1.3-1.2,2.2-2.5,2.2c-6.9-0.3-28.7-2.6-49.1-21.3c-1-0.9-1-2.4-0.2-3.3
						l55.3-62.4C368.6,496.7,371.5,497.9,371.2,500.2z"/>
					<g>
						<defs>
							<path id="SVGID_3_" d="M371.2,500.2l-7.7,83c-0.1,1.3-1.2,2.2-2.5,2.2c-6.9-0.3-28.7-2.6-49.1-21.3c-1-0.9-1-2.4-0.2-3.3
								l55.3-62.4C368.6,496.7,371.5,497.9,371.2,500.2z"/>
						</defs>
						<clipPath id="SVGID_4_">
							<use xlink:href="#SVGID_3_"  style="overflow:visible;"/>
						</clipPath>
						<g class="st34">
							<line class="st26" x1="341.6" y1="482.3" x2="300.6" y2="576.9"/>
							<line class="st26" x1="349.3" y1="485.6" x2="308.3" y2="580.3"/>
							<line class="st26" x1="357" y1="489" x2="316" y2="583.6"/>
							<line class="st26" x1="364.7" y1="492.3" x2="323.8" y2="587"/>
							<line class="st26" x1="372.5" y1="495.7" x2="331.5" y2="590.3"/>
							<line class="st26" x1="380.2" y1="499" x2="339.2" y2="593.6"/>
							<line class="st26" x1="387.9" y1="502.4" x2="346.9" y2="597"/>
							<line class="st26" x1="395.6" y1="505.7" x2="354.7" y2="600.3"/>
							<line class="st26" x1="403.4" y1="509.1" x2="362.4" y2="603.7"/>
							<line class="st26" x1="293.9" y1="522.7" x2="394" y2="497.9"/>
							<line class="st26" x1="295.9" y1="530.8" x2="396" y2="506.1"/>
							<line class="st26" x1="297.9" y1="539" x2="398" y2="514.3"/>
							<line class="st26" x1="299.9" y1="547.2" x2="400" y2="522.4"/>
							<line class="st26" x1="301.9" y1="555.4" x2="402" y2="530.6"/>
							<line class="st26" x1="303.9" y1="563.5" x2="404" y2="538.8"/>
							<line class="st26" x1="306" y1="571.7" x2="406.1" y2="547"/>
							<line class="st26" x1="308" y1="579.9" x2="408.1" y2="555.1"/>
							<line class="st26" x1="310" y1="588" x2="410.1" y2="563.3"/>
						</g>
					</g>
				</g>
			</g>
			<path class="st35" d="M302.5,596c2.1,1.1,23.9,17.5,51.1,7.1C353.6,603.1,322.5,617.6,302.5,596z"/>
		</g>
		<path class="st36" d="M311.9,564.1c0,0,17.5,18.4,49.1,21.3C361,585.4,320.3,593.1,311.9,564.1z"/>
	</g>
	<g class="st18">
		<g>
			<g>
				<g>
					<path class="st29" d="M861.2,597.4c-3.1-2.5-3.9-4.8-6.7-4.9c0.6-2.2,1-4.6,1-7c0-14.2-11.7-25.6-25.9-25.3
						c-13.4,0.3-24.3,11.2-24.7,24.6c-0.2,6.8,2.3,12.9,6.4,17.6c-4,0-22.6-0.4-23.9,5.6c-1.4,6.3,16,10.3,24.6,8.3
						c8.6-2,9.3-2.6,11.6-1.3c2.3,1.3,6.3,2.6,8.6,0.3c2.3-2.3,4-6.6,7.6-5c3.6,1.7,8.9-0.3,8.9-2.6c0-2.3,3-4,6.9-4.3
						S864.8,600.3,861.2,597.4z"/>
				</g>
				<g>
					<path class="st17" d="M798.3,513l49.1,52.2c0.7,0.8,0.7,2,0,2.8c-4.1,4.3-18,17-41.6,19.5c-1.1,0.1-2.1-0.7-2.3-1.8l-8.7-71.1
						C794.5,512.6,796.9,511.5,798.3,513z"/>
					<g>
						<defs>
							<path id="SVGID_5_" d="M798.3,513l49.1,52.2c0.7,0.8,0.7,2,0,2.8c-4.1,4.3-18,17-41.6,19.5c-1.1,0.1-2.1-0.7-2.3-1.8
								l-8.7-71.1C794.5,512.6,796.9,511.5,798.3,513z"/>
						</defs>
						<clipPath id="SVGID_6_">
							<use xlink:href="#SVGID_5_"  style="overflow:visible;"/>
						</clipPath>
						<g class="st37">
							<line class="st26" x1="769.9" y1="521.9" x2="807.5" y2="602.1"/>
							<line class="st26" x1="820" y1="602.3" x2="861" y2="523.8"/>
							<line class="st26" x1="776.4" y1="518.8" x2="814" y2="599"/>
							<line class="st26" x1="783" y1="515.7" x2="820.6" y2="595.9"/>
							<line class="st26" x1="789.5" y1="512.7" x2="827.1" y2="592.9"/>
							<line class="st26" x1="796.1" y1="509.6" x2="833.7" y2="589.8"/>
							<line class="st26" x1="802.6" y1="506.5" x2="840.2" y2="586.7"/>
							<line class="st26" x1="809.2" y1="503.5" x2="846.8" y2="583.7"/>
							<line class="st26" x1="815.7" y1="500.4" x2="853.3" y2="580.6"/>
							<line class="st26" x1="822.3" y1="497.3" x2="859.9" y2="577.5"/>
							<line class="st26" x1="768.7" y1="575.6" x2="809.7" y2="497.1"/>
							<line class="st26" x1="775.1" y1="578.9" x2="816.1" y2="500.4"/>
							<line class="st26" x1="781.6" y1="582.3" x2="822.6" y2="503.8"/>
							<line class="st26" x1="788" y1="585.6" x2="829" y2="507.1"/>
							<line class="st26" x1="794.4" y1="589" x2="835.4" y2="510.5"/>
							<line class="st26" x1="800.8" y1="592.3" x2="841.8" y2="513.8"/>
							<line class="st26" x1="807.2" y1="595.6" x2="848.2" y2="517.1"/>
							<line class="st26" x1="813.6" y1="599" x2="854.6" y2="520.5"/>
						</g>
					</g>
				</g>
			</g>
			<path class="st30" d="M813.7,602.4c0,0,21.3,8.7,39-7C852.7,595.3,838.2,616.7,813.7,602.4z"/>
		</g>
		<path class="st38" d="M847.9,567.3c-15.6,33.3-42.8,20.2-42.8,20.2C834.3,584.7,847.9,567.3,847.9,567.3z"/>
	</g>
	<g class="st18">
		<g>
			<path class="st39" d="M956.8,609.4c16.5-8.1,26.7-25.4,26.4-44.2c-0.8-54.5,4.1-153.7,50.9-161.6c64.7-11-52,23.5-22.8,190.9
				c19.5,111.6-20.9,138.8-58.2,138.4c-28.3-0.3-49.5-27.5-44.2-55.8C913.5,653.1,925.7,624.7,956.8,609.4z"/>
		</g>
		<path class="st40" d="M1008.4,613.5c0,0-12.7-33.1-34-9.3C974.3,604.2,988,590.2,1008.4,613.5z"/>
		<path class="st41" d="M964.9,611.9c0,0-72.7,34.4-43.4,101.1C921.5,713,908.2,644.8,964.9,611.9z"/>
		<path class="st42" d="M1038.8,405.3c0,0-39-3.3-48.1,88.8C990.6,494.1,1002,422.1,1038.8,405.3z"/>
	</g>
	<path class="st22" d="M420.6,576.6h-0.4v-0.5c0-3.2-2.6-5.9-5.9-5.9H414v-0.9c0-3.2-2.6-5.9-5.9-5.9H405c-3.2,0-5.9,2.6-5.9,5.9
		v0.9h-1.3c-3.2,0-5.9,2.6-5.9,5.9v0.5h-0.4c-3,0-5.5,2.5-5.5,5.5c0,3,2.5,5.5,5.5,5.5h29.1c3,0,5.5-2.5,5.5-5.5
		C426.2,579.1,423.7,576.6,420.6,576.6z"/>
	<path class="st22" d="M921,564.9h-0.4v-0.5c0-3.1-2.5-5.7-5.7-5.7h-0.3v-0.9c0-3.1-2.5-5.7-5.7-5.7H906c-3.1,0-5.7,2.5-5.7,5.7v0.9
		h-1.3c-3.1,0-5.7,2.5-5.7,5.7v0.5H893c-2.9,0-5.3,2.4-5.3,5.3s2.4,5.3,5.3,5.3h28c2.9,0,5.3-2.4,5.3-5.3S923.9,564.9,921,564.9z"/>
	<ellipse class="st43" cx="657.4" cy="709.5" rx="151.5" ry="40.5"/>
	<path class="st44" d="M522.8,554.3l-14,73.8l-11.6,5.2c-5.1,2.3-8.4,7.4-8.4,12.9v28.1c0,7.6,6.2,13.8,13.8,13.8h236.4
		c13.7,0,24.9-11.1,24.9-24.9V551.5c0-1.4-1.1-2.5-2.5-2.5H529.1C526,549,523.3,551.2,522.8,554.3z"/>
	<path class="st45" d="M526.2,571.7l-10.7,54.4c-0.4,2,1.2,3.9,3.2,3.9h19.7c1.8,0,3.3-1.5,3.3-3.3v-54.4c0-1.8-1.5-3.3-3.3-3.3h-9
		C527.9,569,526.5,570.1,526.2,571.7z"/>
	<path class="st45" d="M553.5,630h29.3c2.2,0,3.9-1.8,3.9-3.9V573c0-2.2-1.8-3.9-3.9-3.9h-29.3c-2.2,0-3.9,1.8-3.9,3.9v53.1
		C549.6,628.3,551.4,630,553.5,630z"/>
	<path class="st46" d="M529.8,549h231.3c1.5,0,2.6,1.2,2.6,2.6v5.2c0,1.5-1.2,2.6-2.6,2.6H521.8l0.9-4.6
		C523.3,551.5,526.3,549,529.8,549z"/>
	<polygon class="st47" points="549.6,619.3 579.3,569 582.9,569 549.6,626.1 	"/>
	<polygon class="st47" points="586.8,573.8 553.8,630 559.9,630 586.8,583.2 	"/>
	<polygon class="st48" points="763.8,559.5 669.3,656 763.8,656 	"/>
	<rect x="629.6" y="569" class="st45" width="118.2" height="61"/>
	<g class="st49">
		<path class="st9" d="M626.2,585c0.1,2.9,3.6,5.2,7.8,5.2c4.2,0,7.7-2.3,7.8-5.2l0-8.9h-15.6L626.2,585z"/>
		<path class="st9" d="M641.8,585c0.1,2.9,3.6,5.2,7.8,5.2c4.2,0,7.7-2.3,7.8-5.2l0-8.9h-15.6L641.8,585z"/>
		<path class="st9" d="M657.4,585c0.1,2.9,3.6,5.2,7.8,5.2s7.7-2.3,7.8-5.2l0-8.9h-15.6L657.4,585z"/>
		<path class="st9" d="M673.1,585c0.1,2.9,3.6,5.2,7.8,5.2s7.7-2.3,7.8-5.2l0-8.9H673L673.1,585z"/>
		<path class="st9" d="M688.7,585c0.1,2.9,3.6,5.2,7.8,5.2s7.7-2.3,7.8-5.2l0-8.9h-15.6L688.7,585z"/>
		<path class="st9" d="M704.3,585c0.1,2.9,3.6,5.2,7.8,5.2s7.7-2.3,7.8-5.2l0-8.9h-15.6L704.3,585z"/>
		<path class="st9" d="M720,585c0.1,2.9,3.6,5.2,7.8,5.2c4.2,0,7.7-2.3,7.8-5.2l0-8.9h-15.6L720,585z"/>
		<path class="st9" d="M735.6,576.1l0,8.9c0.1,2.9,3.6,5.2,7.8,5.2c4.2,0,7.7-2.3,7.8-5.2l0-8.9H735.6z"/>
	</g>
	<path class="st46" d="M626.1,626h125.1v0.9c0,1.7-1.4,3.1-3.1,3.1H629.3c-1.7,0-3.1-1.4-3.1-3.1V626z"/>
	<g class="st18">
		<path class="st3" d="M629.5,569c-1.9,0-3.3,1.5-3.3,3.4l0,5.6c0.1,2.9,3.6,5.2,7.8,5.2c4.2,0,7.7-2.3,7.8-5.2l0-8.9H629.5z"/>
		<path class="st4" d="M641.8,569l0,8.9c0.1,2.9,3.6,5.2,7.8,5.2c4.2,0,7.7-2.3,7.8-5.2l0-8.9H641.8z"/>
		<path class="st3" d="M657.4,569l0,8.9c0.1,2.9,3.6,5.2,7.8,5.2c4.2,0,7.7-2.3,7.8-5.2l0-8.9H657.4z"/>
		<path class="st4" d="M673,569l0,8.9c0.1,2.9,3.6,5.2,7.8,5.2s7.7-2.3,7.8-5.2l0-8.9H673z"/>
		<path class="st3" d="M688.7,569l0,8.9c0.1,2.9,3.6,5.2,7.8,5.2s7.7-2.3,7.8-5.2l0-8.9H688.7z"/>
		<path class="st4" d="M704.3,569l0,8.9c0.1,2.9,3.6,5.2,7.8,5.2c4.2,0,7.7-2.3,7.8-5.2l0-8.9H704.3z"/>
		<path class="st3" d="M719.9,569l0,8.9c0.1,2.9,3.6,5.2,7.8,5.2c4.2,0,7.7-2.3,7.8-5.2l0-8.9H719.9z"/>
		<path class="st4" d="M735.6,569l0,8.9c0.1,2.9,3.6,5.2,7.8,5.2c4.2,0,7.7-2.3,7.8-5.2l0-5.6c0-1.9-1.5-3.4-3.3-3.4H735.6z"/>
	</g>
	<path class="st50" d="M763.8,551.7v7.8h-75.1l59.1-10.5h13.3C762.6,549,763.8,550.2,763.8,551.7z"/>
	<g class="st18">
		<path class="st3" d="M762.7,661.3H489.4c-2.8,0-5.2-2.3-5.2-5.2v-3.7c0-2.8,2.3-5.2,5.2-5.2h273.3c2.8,0,5.2,2.3,5.2,5.2v3.7
			C767.8,658.9,765.5,661.3,762.7,661.3z"/>
		<rect x="484.3" y="651.8" class="st7" width="283.6" height="5"/>
	</g>
	<g class="st18">
		<g>
			<circle class="st13" cx="720.8" cy="682.5" r="27"/>
			<circle class="st7" cx="720.8" cy="682.5" r="15"/>
			<path class="st14" d="M728.7,659.5c0,0,12.5,2.5,16.3,18.6C745,678.1,740.7,666.9,728.7,659.5z"/>
		</g>
		<path class="st51" d="M736.2,682.5c0,8.3-6.7,15-15,15v-30C729.4,667.5,736.2,674.2,736.2,682.5z"/>
	</g>
	<g class="st18">
		<circle class="st13" cx="528.8" cy="682.5" r="27"/>
		<circle class="st7" cx="528.8" cy="682.5" r="15"/>
		<path class="st51" d="M544,682.5c0,8.3-6.7,15-15,15v-30C537.3,667.5,544,674.2,544,682.5z"/>
		<path class="st14" d="M536.5,659.3c0,0,12.5,2.5,16.3,18.6C552.9,677.9,548.6,666.7,536.5,659.3z"/>
	</g>
	<g class="st18">
		<polygon class="st0" points="582.3,539.3 582.3,541.7 579.9,541.7 579.9,545.4 582.3,545.4 582.3,550.5 578.9,550.5 578.9,552.8 
			588.8,552.8 588.8,550.5 585.3,550.5 585.3,545.3 587.8,545.3 587.8,541.7 585.3,541.7 585.3,539.3 		"/>
		<rect x="579.9" y="543.1" class="st15" width="7.9" height="0.9"/>
	</g>
	<g class="st18">
		<polygon class="st0" points="711.9,535.2 711.9,541.7 709.6,541.7 709.6,545.4 711.9,545.4 711.9,550.5 708.6,550.5 708.6,552.8 
			718.4,552.8 718.4,550.5 714.9,550.5 714.9,545.3 717.4,545.3 717.4,541.7 714.9,541.7 714.9,535.2 		"/>
		<rect x="709.5" y="543.1" class="st15" width="7.9" height="0.9"/>
	</g>
	<g class="st18">
		<path class="st52" d="M589.1,520.4c2.1,0.3,3.9,1.1,5.4,2.5c1.4,1.4,2.2,3.1,2.5,5c0.4,2.5,0.1,5-1.2,7.2c-1.1,2-2.8,3.4-4.7,4.6
			c-3.1,1.9-6.4,3-9.9,3.8c-1.1,0.2-2.3,0.4-3.4,0.6c-0.6,0.1-0.6,0.1-0.6-0.5c0-1.1,0.1-2.2,0.2-3.3c0-0.3,0.2-0.3,0.4-0.3
			c1.6-0.3,3.2-0.8,4.7-1.4c1.6-0.7,3.2-1.5,4.4-2.8c1.1-1.1,1.7-2.4,1.7-4c0-1.9-0.9-3.4-2.4-4.5c-1.4-1-3.1-1.5-4.8-1.9
			c-0.8-0.1-1.6-0.3-2.4-0.3c-0.4,0-0.5-0.1-0.5-0.5c0-1.6-0.1-3.2-0.2-4.8c0-0.3,0.1-0.4,0.3-0.4c2.2-0.3,4.3-1,6.2-2.4
			c2-1.5,2.9-4.2,2.1-6.5c-0.4-1.2-1.3-2.1-2.4-2.7c-1.4-0.8-3-1.2-4.7-1.4c-1.1-0.1-2.3-0.2-3.4-0.2c-0.3,0-0.4-0.1-0.4-0.4
			c-0.1-1.1-0.1-2.2-0.2-3.3c-0.1-2-0.2-4.1-0.3-6.1c0-0.3,0.1-0.3,0.3-0.3c1.3,0,2.5,0,3.8,0.1c1.6,0.1,3.2,0.3,4.8,0.7
			c2.7,0.6,5.3,1.5,7.6,3.2c2.3,1.8,3.6,4.2,4.1,7.1c0.3,2.1,0.3,4.1-0.5,6.1c-1,2.4-2.6,4.3-4.7,5.8
			C590.3,519.7,589.7,520.1,589.1,520.4z"/>
		<path class="st53" d="M625,542.1c-1.1,0.2-2.1,0.3-3.1,0.5c-0.5,0.1-0.9,0.1-1.4,0.2c-0.2,0-0.4,0-0.5-0.2
			c-2.8-4.2-5.6-8.5-8.4-12.7c-0.1-0.2-0.1-0.3-0.1-0.5c0.2-1.7,0.5-3.4,0.7-5.1c0-0.3,0.1-0.4,0.4-0.5c2.3-0.8,4.4-1.8,6.3-3.4
			c0.8-0.7,1.6-1.5,2.1-2.5c1.1-2.1,0.8-4.4-0.9-6.1c-1.4-1.4-3.1-2.2-4.9-2.9c-0.4-0.1-0.9-0.3-1.3-0.4c-0.3-0.1-0.3-0.2-0.3-0.4
			c0.1-1.2,0.2-2.5,0.4-3.7c0.2-2,0.4-4.1,0.6-6.1c0-0.3,0.1-0.4,0.4-0.3c4.1,0.9,8,2.3,11.4,4.8c2.2,1.6,3.8,3.6,4.5,6.3
			c0.6,2.1,0.4,4.2-0.2,6.3c-1.6,6.1-5.5,10-11.3,12.2c-0.4,0.1-0.4,0.2-0.2,0.6c1.9,4.5,3.8,9,5.7,13.5
			C624.8,541.7,624.9,541.9,625,542.1z"/>
		<path class="st52" d="M601.8,541.1c0.1-4,0-8.4,0.1-12.8c0.1-3.7,0-7.4,0.1-11.2c0.1-3.8,0-7.5,0.1-11.3c0.1-3,0-6,0.1-9
			c0-0.3,0.1-0.5,0.4-0.5c2.5,0.1,4.9,0.2,7.4,0.3c0.7,0,1.5,0.1,2.2,0.1c0.2,0,0.3,0.1,0.2,0.3c-0.1,1.3-0.3,2.6-0.4,3.9
			c-0.1,1.3-0.3,2.5-0.4,3.8c-0.2,1.5-0.3,3.1-0.5,4.6c-0.2,1.5-0.3,3-0.5,4.4c-0.2,1.6-0.3,3.2-0.5,4.8c-0.2,1.5-0.3,3-0.5,4.5
			c-0.2,1.5-0.3,3.1-0.5,4.6c-0.1,1.2-0.2,2.4-0.4,3.6c-0.2,1.8-0.4,3.7-0.6,5.5c-0.2,1.5-0.3,3-0.5,4.5c-0.1,0.7-0.2,1.4-0.2,2.1
			c0,0.2-0.1,0.3-0.4,0.3c-1.7,0-3.5-0.1-5.2-0.1c-0.2,0-0.3-0.1-0.3-0.3C601.8,542.8,601.8,542.1,601.8,541.1z"/>
		<path class="st53" d="M573.9,520.9c0.1,3.8,0.3,7.5,0.4,11.3c0.1,3.5,0.2,7,0.4,10.4c0,0.4-0.1,0.5-0.5,0.5c-1,0-2-0.1-3-0.1
			c-0.3,0-0.4-0.1-0.4-0.4c-1.3-5.6-2.5-11.3-3.8-16.9c-1.8-8.1-3.6-16.2-5.5-24.2c-0.1-0.6-0.1-0.6,0.5-0.7c3.6-0.7,7.2-1.4,10.8-2
			c0.3-0.1,0.5,0,0.5,0.4c0.2,5.5,0.4,10.9,0.5,16.4C573.8,517.3,573.8,519.1,573.9,520.9C573.9,520.9,573.9,520.9,573.9,520.9z"/>
		<path class="st53" d="M644.7,515.3c0.1,0.8,0.2,1.5,0.3,2.2c0,0.3,0,0.4-0.4,0.4c-0.9,0.1-1.9,0.2-2.8,0.3c-0.3,0-0.4,0-0.4-0.4
			c-0.6-5.3-1.2-10.6-1.8-15.9c-0.1-1.3-0.3-2.6-0.4-3.8c0-0.3,0-0.5,0.4-0.5c0.9-0.1,1.8-0.2,2.7-0.3c0.3,0,0.5,0,0.5,0.4
			c0.2,1.8,0.4,3.5,0.6,5.3c0.2,0,0.3-0.1,0.4-0.2c3-2,7.2-1.7,9.9,0.8c3.8,3.4,2.9,9.4-1.8,11.6c-2.2,1.1-4.4,1.1-6.7,0.2
			C645,515.4,644.9,515.4,644.7,515.3z"/>
		<path class="st53" d="M684.9,537.6c0,0.6,0,1.1,0,1.7c0,0.3-0.1,0.4-0.4,0.4c-1,0-1.9,0-2.9,0c-0.3,0-0.4-0.1-0.4-0.4
			c0-3.7-0.1-7.4-0.1-11.2c0-2.3,0-4.6-0.1-6.9c0-0.3,0-0.4,0.4-0.4c1,0,1.9,0,2.9,0c0.3,0,0.3,0.1,0.3,0.3c0,1.5,0,2.9,0.1,4.4
			c0,0.1,0,0.2,0,0.3c0.7-0.4,1.5-0.6,2.2-0.8c3.8-0.8,7.6,1.6,8.6,5.2c0.8,3-0.8,6.2-3.9,7.6c-2.2,0.9-4.4,0.9-6.5-0.1
			C685.1,537.7,685,537.6,684.9,537.6z"/>
		<path class="st53" d="M669.3,540.7c0,0.6,0,1.2,0,1.8c0,0.3,0,0.4-0.3,0.4c-1,0-2,0-3,0c-0.3,0-0.3-0.1-0.3-0.3
			c0.1-3.6,0.1-7.2,0.1-10.8c0-2.4,0.1-4.8,0.1-7.3c0-0.4,0.1-0.5,0.5-0.4c0.9,0,1.9,0,2.8,0c0.3,0,0.4,0.1,0.4,0.4
			c0,1.4-0.1,2.8-0.1,4.2c0,0.2,0,0.3,0,0.5c0.8-0.4,1.6-0.6,2.4-0.7c4.2-0.5,7.7,2.2,8.3,5.6c0.6,3-1,6-4,7.2
			c-2.2,0.9-4.3,0.8-6.5-0.2C669.7,540.9,669.5,540.8,669.3,540.7z"/>
		<path class="st53" d="M669.6,504.9c0-0.5,0.1-1,0.1-1.4c0-0.2,0.1-0.3,0.3-0.2c1,0.1,2,0.1,3,0.2c0.3,0,0.3,0.1,0.3,0.4
			c-0.1,2.4-0.3,4.7-0.4,7.1c-0.1,2.5-0.3,4.9-0.4,7.4c0,0.6,0,0.6-0.6,0.5c-0.9-0.1-1.9-0.1-2.8-0.2c-0.3,0-0.3-0.1-0.3-0.4
			c0-0.4,0-0.7,0.1-1.1c-0.7,0.3-1.4,0.6-2.2,0.7c-3.7,0.8-7.7-1.3-8.9-4.7c-1.2-3.4,0.4-7.1,3.8-8.7c2.6-1.2,5.1-1.1,7.6,0.3
			c0.1,0,0.1,0.1,0.2,0.1C669.5,505,669.6,504.9,669.6,504.9z"/>
		<path class="st53" d="M689.4,507.7c2.5-2.5,5-4.9,7.4-7.3c0.3-0.3,0.4-0.3,0.7,0c0.6,0.7,1.3,1.3,2,2c0.2,0.2,0.2,0.3,0,0.5
			c-1.2,1.2-2.5,2.4-3.7,3.6c-0.2,0.2-0.2,0.3,0,0.5c1.4,1.8,2.8,3.6,4.2,5.4c0.2,0.2,0.2,0.3,0,0.5c-0.8,0.6-1.5,1.2-2.3,1.8
			c-0.2,0.2-0.3,0.2-0.5-0.1c-1.3-1.7-2.6-3.4-3.9-5c-0.2-0.3-0.3-0.3-0.6,0c-2.3,2.3-4.7,4.6-7,6.9c-0.1-0.1-0.1-0.2-0.1-0.3
			c0.2-5.3,0.3-10.5,0.5-15.8c0-1.6,0.1-3.3,0.1-4.9c0-0.3,0.1-0.4,0.4-0.4c1,0.1,1.9,0.1,2.9,0.1c0.3,0,0.4,0.1,0.4,0.4
			c-0.1,4-0.2,7.9-0.3,11.9C689.4,507.5,689.4,507.6,689.4,507.7z"/>
		<path class="st53" d="M710.8,500.3c3.3,3.4,6.5,6.7,9.8,10.1c0.1-0.3,0.1-0.6,0.1-0.9c0.1-2.1,0.1-4.2,0.2-6.2
			c0-0.3,0.1-0.4,0.4-0.4c1,0.1,1.9,0.1,2.9,0.1c0.3,0,0.4,0.1,0.4,0.4c-0.1,2.8-0.2,5.6-0.3,8.4c-0.1,2.2-0.1,4.3-0.2,6.5
			c0,0.2,0,0.5,0,0.9c-3.3-3.4-6.6-6.8-9.9-10.2c-0.1,1.4-0.1,2.7-0.2,3.9c0,1.1-0.1,2.2-0.1,3.3c0,0.4-0.1,0.5-0.5,0.4
			c-0.9-0.1-1.9-0.1-2.8-0.1c-0.3,0-0.4-0.1-0.4-0.4C710.4,510.9,710.6,505.7,710.8,500.3z"/>
		<path class="st53" d="M717.2,541.6c-3.1-3.6-6.2-7.1-9.4-10.6c-0.1,0.1-0.1,0.3-0.1,0.4c0,2.1,0,4.2,0,6.2c0,0.3-0.1,0.4-0.4,0.4
			c-1,0-2,0-3,0c-0.2,0-0.3,0-0.3-0.3c0-5.4,0-10.8,0-16.2c0,0,0,0,0.1-0.1c3.1,3.5,6.2,7,9.3,10.6c0.1-0.2,0.1-0.3,0.1-0.5
			c0-1.9,0-3.8,0-5.8c0-0.3,0.1-0.4,0.4-0.4c1,0,1.9,0,2.9,0c0.2,0,0.4,0,0.4,0.3c0,5.3,0,10.5-0.1,15.8
			C717.2,541.5,717.2,541.5,717.2,541.6z"/>
		<path class="st53" d="M657.1,541c-2.2-0.1-4.3-1-5.8-2.9c-2.2-2.9-1.6-7,1.3-9.2c3.2-2.4,7.9-1.8,10.4,1.4
			c2.7,3.4,1.3,8.3-2.8,10.1C659.3,540.8,658.4,541,657.1,541z"/>
		<path class="st53" d="M645.7,526.4c1.3-0.8,2.5-1.2,3.8-1.5c0.3-0.1,0.6-0.1,0.9-0.1c0.2,0,0.3,0,0.3,0.2c0,1,0.1,2.1,0.1,3.1
			c0,0.2-0.1,0.2-0.3,0.2c-0.5,0.1-0.9,0.2-1.4,0.3c-2.2,0.7-3.3,2.1-3.2,4.5c0.1,2.6,0.1,5.2,0.2,7.8c0,0.4-0.1,0.5-0.5,0.5
			c-0.9,0-1.9,0-2.8,0.1c-0.3,0-0.4,0-0.4-0.3c-0.1-4-0.2-7.9-0.3-11.9c0-1.5-0.1-3.1-0.1-4.6c0-0.3,0.1-0.4,0.4-0.4
			c1,0,1.9,0,2.9-0.1c0.3,0,0.4,0.1,0.4,0.4C645.7,525.2,645.7,525.7,645.7,526.4z"/>
		<path class="st53" d="M677.3,518.7c-0.1,0-0.1-0.1-0.2-0.2c-0.4-0.6-0.8-1.3-1.2-1.9c-0.1-0.2-0.1-0.3,0.1-0.4
			c0.8-0.5,1.7-1,2.5-1.6c1-0.6,1.2-1.3,0.7-2.3c-0.8-1.8-1.8-3.5-2.7-5.2c-0.5-0.9-0.6-1.9-0.4-2.9c0.1-0.7,0.5-1.3,1.1-1.7
			c1.5-0.9,3-1.9,4.5-2.8c0.1-0.1,0.2-0.1,0.3,0.1c0.4,0.7,0.7,1.3,1.1,2c0.1,0.2,0,0.3-0.1,0.4c-0.8,0.5-1.7,1.1-2.5,1.6
			c-0.3,0.2-0.5,0.4-0.7,0.7c-0.3,0.4-0.3,0.8-0.1,1.2c1,1.9,1.9,3.8,2.9,5.7c0.4,0.8,0.7,1.7,0.6,2.6c-0.1,0.7-0.5,1.3-1.1,1.7
			c-1.5,1-3.1,1.9-4.7,2.9C677.4,518.6,677.3,518.6,677.3,518.7z"/>
		<path class="st53" d="M725.1,523.8c0.1,0,0.1,0.1,0.2,0.2c0.4,0.7,0.7,1.3,1.1,2c0.1,0.2,0,0.3-0.1,0.4c-0.8,0.5-1.7,1.1-2.5,1.6
			c-0.2,0.1-0.4,0.3-0.6,0.5c-0.4,0.5-0.5,0.9-0.2,1.4c1,1.9,1.9,3.8,2.9,5.7c0.3,0.7,0.6,1.3,0.6,2.1c0,0.9-0.4,1.6-1.1,2.1
			c-1.5,1-3.1,1.9-4.7,2.9c-0.2,0.1-0.3,0.1-0.4-0.1c-0.4-0.6-0.7-1.2-1.1-1.8c-0.1-0.2-0.1-0.3,0.1-0.5c0.9-0.5,1.7-1,2.6-1.6
			c0.9-0.6,1.1-1.2,0.7-2.2c-0.8-1.8-1.8-3.6-2.7-5.3c-0.4-0.8-0.6-1.8-0.5-2.7c0.1-0.8,0.5-1.5,1.2-1.9c1.5-0.9,3-1.9,4.5-2.8
			C725,523.9,725.1,523.8,725.1,523.8z"/>
		<path class="st53" d="M706.5,509.7c0,2.2,0,4.4,0,6.6c0,0.3-0.1,0.3-0.3,0.3c-1,0-1.9,0-2.9,0c-0.3,0-0.4,0-0.4-0.4
			c-0.1-4.4-0.1-8.8-0.2-13.3c0-0.3,0.1-0.4,0.4-0.4c1,0,1.9,0,2.9,0c0.3,0,0.4,0.1,0.4,0.4c0,2.2,0,4.4,0,6.7
			C706.4,509.7,706.5,509.7,706.5,509.7z"/>
		<path class="st53" d="M701.2,532.1c-0.1,1.9-0.1,3.8-0.2,5.7c0,0.3-0.1,0.3-0.4,0.3c-1,0-2-0.1-3-0.1c-0.2,0-0.3-0.1-0.3-0.3
			c0.1-2.8,0.2-5.6,0.2-8.4c0-1,0.1-2,0.1-3c0-0.3,0.1-0.4,0.4-0.4c1,0,2,0.1,3,0.1c0.3,0,0.3,0.2,0.3,0.4
			C701.3,528.3,701.2,530.2,701.2,532.1C701.2,532.1,701.2,532.1,701.2,532.1z"/>
		<path class="st53" d="M699.5,524.7c-1.2,0-2.1-0.9-2.1-1.9c0-1,1-1.9,2.1-1.9c1.1,0,2.1,0.9,2.1,1.9
			C701.6,523.9,700.7,524.8,699.5,524.7z"/>
		<path class="st53" d="M702.3,499.5c0-1.1,1-1.9,2.1-1.9c1.1,0,2,0.8,2,1.9c0,1.1-1,2-2.1,1.9C703.2,501.3,702.3,500.5,702.3,499.5
			z"/>
		<path class="st53" d="M732.9,525.7c0,1.4-1.2,2.6-2.6,2.6c-1.4,0-2.5-1.2-2.5-2.6c0-1.4,1.2-2.6,2.6-2.5
			C731.8,523.1,732.9,524.3,732.9,525.7z"/>
		<path class="st54" d="M648.2,512.4c-1,0-1.8-0.3-2.6-0.8c-2.1-1.5-2.1-4.3,0.1-5.7c1.6-1,3.3-1,4.9,0c2.3,1.5,2.2,4.5-0.1,5.9
			C649.8,512.2,649.1,512.4,648.2,512.4z"/>
		<path class="st54" d="M692.2,531.9c0,0.7-0.3,1.4-0.9,2c-1.6,1.6-4.6,1.3-5.9-0.6c-0.7-1-0.7-2.3,0-3.3c0.9-1.2,2.2-1.6,3.7-1.3
			c1.4,0.3,2.5,1,2.9,2.5C692.1,531.4,692.2,531.6,692.2,531.9z"/>
		<path class="st54" d="M673.3,538.1c-1,0-1.8-0.3-2.5-0.8c-0.8-0.6-1.4-1.5-1.3-2.6c0.1-1.3,0.8-2.2,2-2.6c1.5-0.6,2.9-0.4,4.1,0.6
			c1.8,1.4,1.6,3.9-0.5,5C674.5,538,673.9,538.1,673.3,538.1z"/>
		<path class="st54" d="M665.2,514.4c-1,0-2-0.3-2.8-0.9c-1.8-1.4-1.8-3.8,0-5.2c1.7-1.4,4.4-1.2,5.9,0.3c1.3,1.3,1.3,3.2,0,4.5
			C667.5,514,666.4,514.4,665.2,514.4z"/>
		<path class="st54" d="M657.3,537.4c-1,0-1.9-0.3-2.7-1c-1.4-1.3-1.3-3.4,0.3-4.6c1.6-1.1,3.9-0.9,5.2,0.5c1.2,1.2,1,3.2-0.3,4.2
			C659.1,537.1,658.2,537.3,657.3,537.4z"/>
		<path class="st54" d="M730.3,523.6c1.1,0,2,0.9,2,2c0,1.1-0.9,2.1-2,2.1c-1.1,0-2-0.9-2-2C728.3,524.6,729.2,523.6,730.3,523.6z"
			/>
		<path class="st55" d="M731.5,527.1c-0.4,0-0.6-0.1-0.8-0.4c-0.1-0.2-0.3-0.4-0.4-0.7c-0.1-0.2-0.3-0.2-0.4-0.1
			c-0.2,0-0.1,0.2-0.1,0.3c0,0.2,0,0.4,0,0.6c0,0.1,0.1,0.3-0.2,0.3c-0.2,0-0.3-0.1-0.3-0.3c0-0.8,0.1-1.5,0.1-2.3
			c0-0.2,0.1-0.2,0.3-0.2c0.4,0,0.7,0,1.1,0c0.4,0,0.6,0.2,0.7,0.6c0,0.4,0,0.8-0.4,0.9c-0.3,0.1-0.2,0.2-0.1,0.4
			C731.1,526.5,731.3,526.7,731.5,527.1z"/>
		<path class="st56" d="M730.2,525.5c-0.5,0-0.6-0.3-0.5-0.7c0,0,0-0.1,0-0.1c0.3-0.1,0.7-0.1,1,0c0.2,0.1,0.2,0.2,0.2,0.4
			c-0.1,0.3-0.3,0.3-0.6,0.3C730.3,525.5,730.3,525.5,730.2,525.5z"/>
	</g>
	<line class="st57" x1="606.4" y1="569" x2="606.4" y2="639.2"/>
	<line class="st58" x1="541.8" y1="636.2" x2="541.8" y2="643.5"/>
	<path class="st47" d="M541.8,572.3v5.1l-23,52.6c0,0-1.5,0-2.3-1L541.8,572.3z"/>
	<g class="st18">
		
			<ellipse transform="matrix(0.1015 -0.9948 0.9948 0.1015 150.5506 1529.6317)" class="st59" cx="922.1" cy="681.5" rx="59.4" ry="59.4"/>
		<g>
			
				<ellipse transform="matrix(0.1015 -0.9948 0.9948 0.1015 210.2693 1468.5503)" class="st60" cx="918.1" cy="617.9" rx="19.4" ry="19.4"/>
			<path class="st59" d="M910,581.4c0,0,5.2,16.4,4.3,23.3l0.8,0c0,0-1.3-22.5-3.5-25.7L910,581.4z"/>
			<path class="st61" d="M911.7,604.7c0,0,2,3.3,6.1,1.4C917.8,606.1,912.6,611.1,911.7,604.7z"/>
			<path class="st61" d="M926,602.3c0,0,12.8,4.4,8.6,22.7C934.6,625,935.7,613.4,926,602.3z"/>
		</g>
		<path class="st62" d="M943.5,629.9c0,0,36.3,11.5,34,64.3C977.5,694.2,977,660.6,943.5,629.9z"/>
		<g>
			<path class="st63" d="M941.7,742.8c-7.8-7.8-8.3-14-18.4-13.1c-0.7,0.1-1.7,0.2-2.9,0.5c1.2-3.8,2.1-7.8,2.5-12
				c3.3-32.6-20.4-61.8-53.1-65.1c-32.6-3.3-61.8,20.4-65.1,53.1c-1.3,12.7,1.5,24.9,7.4,35.3c1.4,2.4,2.9,4.8,4.6,7
				c-5.1,5.3-8.6,11.2-8.6,11.2s-6.5,18.1,14,15.5c20.5-2.6,22.3-4,27.3-0.3s14,7.7,20,2.8c2.6-2.1,5-5.1,7.5-7.4
				c3.4-0.8,6.7-1.8,9.8-3.1c0.5,0.2,1.1,0.5,1.7,0.8c8.1,4.7,20.9,1.4,21.5-4.1c0.6-5.4,7.9-8.6,17.2-8.4
				C936.5,755.6,949.5,750.7,941.7,742.8z"/>
			<polygon class="st59" points="825.3,682.6 820.1,688.3 824.3,692.6 			"/>
			<polygon class="st59" points="848.9,670 841.2,668.9 840.1,674.9 			"/>
			<polygon class="st59" points="884,670.4 876.3,669.4 875.2,675.4 			"/>
			<polygon class="st59" points="901,690.5 893.3,689.5 892.2,695.4 			"/>
			<polygon class="st59" points="851.8,699.7 844.8,703.2 847.2,708.7 			"/>
			<polygon class="st59" points="841.4,728.3 833.6,729.2 834,735.3 			"/>
			<polygon class="st59" points="874.5,686.5 866.8,687.4 867.2,693.4 			"/>
			<polygon class="st59" points="861.9,741.5 860.3,733.9 854.3,734.9 			"/>
			<polygon class="st59" points="878.7,726.4 877,718.8 871,719.8 			"/>
			<polygon class="st59" points="825.1,715.3 817.4,714.6 816.5,720.6 			"/>
			<path class="st64" d="M824,748.8c0,0,39.8,15,74.3-1.8C898.4,747,856.6,774,824,748.8z"/>
			<path class="st65" d="M832.6,664.6c0,0-26.5,15.2-23.7,49.1C808.9,713.7,809,690.3,832.6,664.6z"/>
		</g>
		<path class="st66" d="M1029.9,757.3c-6.6-6.7-8-12.1-14.5-13c2-5,3.4-10.4,4-16.1c3.3-32.6-20.4-61.8-53.1-65.1
			c-32.6-3.3-61.8,20.4-65.1,53.1c-1.5,15.1,2.7,29.5,11,40.9c-8.8,5.2-15.8,17.1-15.8,17.1s-6.5,18.1,14,15.5
			c20.5-2.6,22.3-4,27.3-0.3c5.1,3.6,14,7.7,20,2.8c6-4.9,10.8-14.5,18.9-9.8c8.1,4.7,20.9,1.4,21.5-4.1c0.6-5.4,7.9-8.6,17.2-8.4
			C1024.7,770,1037.7,765.1,1029.9,757.3z"/>
		<path class="st67" d="M903.2,738.5c0,0-13.5-37.9,23.3-65.2c0,0,30.6-25.1,68.1,0.3c0,0,20.8,11.9,24.1,37.3
			c3.3,25.4-3.1,34.9-8.6,12.5c-5.5-22.4-12.4-40.8-14.8-28.3c-2.4,12.5,4.2,39.9-3.2,28.5c-7.4-11.4,0.9-33.5-10.6-30.6
			s-2.9,25.6-8.2,24.3s-7.5-3.1-11.4-10.5c-3.9-7.4-10.7-5.8-11.4-0.8c-0.7,5-6,2.9-3.1,13.4c2.8,10.4,8.5,23.5,1,20.4
			c-7.5-3.1-3.7-17.5-8.8-21.2c-5.1-3.6-11,8.2-7.5,19.5c3.5,11.3-0.4,11.7-4.6,6.6c-4.2-5.1-4.9-20.8-9.2-16.5s6.2,15.5-0.8,15.5
			s-5.5-7.6-9.3-8C904.2,735.1,903.2,738.5,903.2,738.5z"/>
		<path class="st68" d="M942.4,667.2c0,0,26.9-11.3,50.6,9.1C993,676.3,978.6,663.9,942.4,667.2z"/>
		<path class="st69" d="M919.5,756.8c0,0,47.2,16.7,82.5-8.6C1002,748.2,960.1,781.9,919.5,756.8z"/>
	</g>
</g>
</svg>
