<?xml version="1.0" encoding="utf-8"?>
<!-- Generator: Adobe Illustrator 21.0.0, SVG Export Plug-In . SVG Version: 6.00 Build 0)  -->
<svg version="1.1" id="Layer_1" xmlns="http://www.w3.org/2000/svg" xmlns:xlink="http://www.w3.org/1999/xlink" x="0px" y="0px"
	 viewBox="0 0 1024 768" style="enable-background:new 0 0 1024 768;" xml:space="preserve">
<style type="text/css">
	.st0{fill:#BA235F;}
	.st1{fill:#CC2E6E;}
	.st2{fill:none;stroke:#F0F0F0;stroke-width:6;stroke-linecap:round;stroke-linejoin:round;stroke-miterlimit:10;}
	.st3{fill:#F9C7DE;}
	.st4{fill:#F78BB7;}
	.st5{fill:#FC97C5;}
	.st6{fill:#F9E8F1;}
	.st7{fill:none;stroke:#AA8153;stroke-miterlimit:10;}
	.st8{fill:#C49D6E;}
	.st9{fill:#EDAC5F;}
	.st10{fill:#F7BB79;}
	.st11{fill:#33D4FF;}
	.st12{fill:#58DBF9;}
	.st13{fill:#F27755;}
	.st14{fill:#F9896E;}
	.st15{fill:#FCD9EB;}
	.st16{fill:none;}
	.st17{fill:#2F518B;}
	.st18{font-family:'Futura-Bold';}
	.st19{font-size:38.4px;}
	.st20{fill:#EFCC5E;}
	.st21{clip-path:url(#SVGID_2_);}
	.st22{fill:#F7D26B;}
	.st23{fill:#E8C45D;}
	.st24{clip-path:url(#SVGID_4_);}
	.st25{fill:#2ECAEF;}
	.st26{fill:#C94881;}
	.st27{fill:#B7427A;}
	.st28{fill:#CE4D8B;}
	.st29{fill:#D35390;}
	.st30{fill:#3F1608;}
	.st31{fill:#FF3F12;}
	.st32{fill:#FF8871;}
	.st33{fill:#561C0C;}
	.st34{fill:#A6EDAA;}
	.st35{fill:#C0F9C1;}
	.st36{fill:#D4FCD5;}
	.st37{fill:#F7F7F7;}
	.st38{fill:#D65B7E;}
	.st39{fill:#DD668E;}
	.st40{fill:#FFFFFF;}
</style>
<g>
	<ellipse class="st0" cx="926.7" cy="486.3" rx="27.2" ry="42.9"/>
	<path class="st1" d="M954.9,486.3c0,23.7-13.6,40.5-27.2,42.9c-0.2,0-0.1-85.8,0-85.8C940.3,443.5,954.9,462.6,954.9,486.3z"/>
	<g>
		<line class="st2" x1="927.2" y1="462.1" x2="927.2" y2="565.2"/>
		<line class="st2" x1="927.2" y1="488" x2="913.2" y2="465.4"/>
		<line class="st2" x1="927.9" y1="497.4" x2="937.2" y2="488"/>
		<line class="st2" x1="927.2" y1="524.8" x2="913.9" y2="504.6"/>
	</g>
</g>
<g>
	<ellipse class="st0" cx="805.3" cy="471.3" rx="43.3" ry="61"/>
	<path class="st1" d="M848.5,471.3c0,33.7-19.4,61-43.3,61c-0.3,0-0.3-122,0-122C829.2,410.3,848.5,437.6,848.5,471.3z"/>
	<line class="st2" x1="805" y1="455.3" x2="805" y2="573.3"/>
	<line class="st2" x1="794.4" y1="468.5" x2="804.7" y2="483.3"/>
	<line class="st2" x1="805.6" y1="504.3" x2="828" y2="480.3"/>
	<line class="st2" x1="804.9" y1="525.2" x2="781" y2="483.3"/>
</g>
<g>
	<ellipse class="st0" cx="391" cy="467" rx="47" ry="83"/>
	<path class="st1" d="M438,467c0,45.8-21,83-47,83V384C417,384,438,421.2,438,467z"/>
	<g>
		<line class="st2" x1="391" y1="433" x2="391" y2="588"/>
		<line class="st2" x1="391" y1="472" x2="370" y2="438"/>
		<line class="st2" x1="392" y1="486.2" x2="406" y2="472"/>
		<line class="st2" x1="391" y1="527.4" x2="371" y2="497"/>
	</g>
</g>
<path class="st3" d="M0,289.3c0,0,177.7,1.2,200.3-2.5C223,283.1,418,293,350,304.2c-68,11.2-135-3.7-124,12.4s106.3,17.9,77,26.1
	c-40,11.2-303,5-303,5V289.3z"/>
<g>
	<path class="st4" d="M1024,568.7c0,0-572.5-11.7-762,22.4c-13.1,2.4-128.9,29.3-4.9,45.7c124,16.4,254.9,30.5,173.8,64.4
		c-81.1,34-143.5,66.8,26.5,66.8c141.1,0,566.6-5.2,566.6-5.2V568.7z"/>
	<path class="st5" d="M1024,575.6c0,0-519.2-9.8-661.5,18.7c-9.8,2-96.7,24.4-3.7,38.1s191.3,25.4,130.4,53.7s-105,75.1,21.5,81.9
		c105.8,5.7,513.2,0,513.2,0V575.6z"/>
</g>
<path class="st3" d="M1024,108c0,0-233-8-262,7s55,16,90,25s92.7,26.9,0,26c-89.3-0.9-214,8.1-158,22c55.9,13.8,157,12,204,9
	s126,1,126,1V108z"/>
<path class="st6" d="M258.9,185.5c0.3-1.3,0.5-2.6,0.5-4c0-9.7-7.9-17.6-17.6-17.6c-6.1,0-11.5,3.1-14.6,7.8
	c-2.1-1.6-4.7-2.6-7.6-2.6c-6.8,0-12.4,5.5-12.4,12.4c0,0.6,0.1,1.3,0.2,1.9c-3.2,2.4-5.4,6.2-5.4,10.5c0,7.2,5.9,13,13,13H249
	c7.2,0,13-5.9,13-13C262,190.7,260.8,187.8,258.9,185.5z"/>
<path class="st6" d="M655.1,363.2c0.3-1.3,0.5-2.6,0.5-4c0-9.7-7.9-17.6-17.6-17.6c-6.1,0-11.5,3.1-14.6,7.8
	c-2.1-1.6-4.7-2.6-7.6-2.6c-6.8,0-12.4,5.5-12.4,12.4c0,0.6,0.1,1.3,0.2,1.9c-3.2,2.4-5.4,6.2-5.4,10.5c0,7.2,5.9,13,13,13h33.9
	c7.2,0,13-5.9,13-13C658.2,368.4,657,365.5,655.1,363.2z"/>
<path class="st6" d="M972.6,275.4c0.2-1,0.4-2,0.4-3.1c0-7.4-6-13.5-13.5-13.5c-4.7,0-8.8,2.4-11.2,6c-1.6-1.2-3.6-2-5.8-2
	c-5.2,0-9.5,4.2-9.5,9.5c0,0.5,0,1,0.1,1.4c-2.5,1.8-4.1,4.8-4.1,8c0,5.5,4.5,10,10,10h26c5.5,0,10-4.5,10-10
	C975,279.4,974.1,277.2,972.6,275.4z"/>
<path class="st6" d="M199.8,455.4c0.4-1.8,0.6-3.6,0.6-5.5c0-13.3-10.8-24.1-24.1-24.1c-8.3,0-15.7,4.2-20,10.7
	c-2.9-2.2-6.4-3.5-10.3-3.5c-9.4,0-16.9,7.6-16.9,16.9c0,0.9,0.1,1.7,0.2,2.6c-4.4,3.3-7.3,8.5-7.3,14.4c0,9.8,8,17.8,17.8,17.8
	h46.3c9.8,0,17.8-8,17.8-17.8C204,462.6,202.4,458.6,199.8,455.4z"/>
<g>
	<g>
		<line class="st7" x1="448.1" y1="254.2" x2="456.3" y2="293.3"/>
		<line class="st7" x1="467.7" y1="255" x2="468.5" y2="291.7"/>
		<line class="st7" x1="491.3" y1="249.3" x2="483.8" y2="293.8"/>
		<path class="st8" d="M455.4,291c5.6-1.1,16.9-2.5,29.9,0.1c1.9,0.4,3.2,2.3,2.8,4.2l-3.7,18.7c-0.3,1.7-1.8,2.9-3.5,2.9h-20.2
			c-1.7,0-3.1-1.1-3.5-2.8l-4.5-18.7C452.2,293.4,453.4,291.4,455.4,291z"/>
		<path class="st9" d="M499.6,243.7c-3.2-3.8-1.6-3.8-5.2-4.4c3.2-5.3,4.8-11.5,4.3-18.2c-1.1-15.3-13.5-27.8-28.9-28.8
			c-18.2-1.2-33.3,13.2-33.3,31.1c0,6.5,2,12.5,5.4,17.4c-5.1,1.9-5.7,5.4-5.7,5.4s-4.2,9,6.5,8.6c10.7-0.4,7.6,2,10.1,4.1
			c2.4,2.1,6.9,4.6,10.1,2.4c3.3-2.2,6.2-6.9,10.2-4.1c3.9,2.8,10.7,1.7,11.2-1.1c0.5-2.7,2.4-7,7.2-6.5
			C496.3,250,503.2,248.1,499.6,243.7z"/>
		<line class="st7" x1="457.1" y1="290.7" x2="461.8" y2="316.8"/>
		<line class="st7" x1="464.4" y1="289.8" x2="466" y2="316.8"/>
		<line class="st7" x1="472.8" y1="289.8" x2="471.9" y2="316.8"/>
		<line class="st7" x1="479.6" y1="290.1" x2="476.6" y2="316.8"/>
		<line class="st7" x1="485.3" y1="291" x2="480.9" y2="316.8"/>
		<path class="st7" d="M452.9,296.6c0,0,18.4-5.2,34.6,0"/>
		<path class="st7" d="M454.7,303.9c0,0,17.1-4.1,31.6,0.4"/>
		<path class="st7" d="M456.8,312.7c0,0,14.6-4.1,27.8,0"/>
	</g>
	<path class="st10" d="M452.3,196.3c0,0,29.3,7.4,45.5,35.2c0,0,5.9-17.6-8.9-31.1C473.9,186.8,456.2,193.6,452.3,196.3z"/>
</g>
<g>
	<g>
		<line class="st7" x1="61.9" y1="578.7" x2="67.2" y2="603.9"/>
		<line class="st7" x1="74.5" y1="579.4" x2="75" y2="602.9"/>
		<line class="st7" x1="89.5" y1="575.8" x2="84.7" y2="604.2"/>
		<path class="st8" d="M66.7,602.4c3.5-0.7,10.8-1.6,19.1,0c1.2,0.2,2,1.5,1.8,2.7l-2.4,11.9c-0.2,1.1-1.2,1.8-2.2,1.8H70
			c-1.1,0-2-0.7-2.2-1.8l-2.9-11.9C64.6,603.9,65.4,602.7,66.7,602.4z"/>
		<path class="st11" d="M94.8,572.3c-2-2.5-1-2.4-3.3-2.8c2-3.4,3.1-7.4,2.8-11.6c-0.7-9.8-8.6-17.7-18.4-18.4
			c-11.6-0.8-21.2,8.4-21.2,19.8c0,4.1,1.3,7.9,3.4,11.1c-3.2,1.2-3.7,3.4-3.7,3.4s-2.7,5.7,4.1,5.5c6.8-0.2,4.9,1.3,6.4,2.6
			c1.6,1.3,4.4,2.9,6.5,1.5c2.1-1.4,4-4.4,6.5-2.6c2.5,1.8,6.8,1.1,7.2-0.7c0.3-1.8,1.6-4.5,4.6-4.1
			C92.7,576.3,97.1,575.1,94.8,572.3z"/>
		<line class="st7" x1="67.7" y1="602.2" x2="70.7" y2="618.9"/>
		<line class="st7" x1="72.4" y1="601.7" x2="73.4" y2="618.9"/>
		<line class="st7" x1="77.7" y1="601.7" x2="77.2" y2="618.9"/>
		<line class="st7" x1="82" y1="601.9" x2="80.2" y2="618.9"/>
		<line class="st7" x1="85.7" y1="602.5" x2="82.9" y2="618.9"/>
		<path class="st7" d="M65.1,606c0,0,11.7-3.3,22.1,0"/>
		<path class="st7" d="M66.2,610.7c0,0,10.9-2.6,20.2,0.2"/>
		<path class="st7" d="M67.5,616.3c0,0,9.3-2.6,17.7,0"/>
	</g>
	<path class="st12" d="M64.6,542c0,0,18.7,4.7,29,22.5c0,0,3.8-11.2-5.7-19.9S67.2,540.3,64.6,542z"/>
</g>
<g>
	<g>
		<line class="st7" x1="775.5" y1="309.7" x2="782.2" y2="342"/>
		<line class="st7" x1="791.6" y1="310.6" x2="792.2" y2="340.7"/>
		<line class="st7" x1="810.9" y1="306" x2="804.8" y2="342.4"/>
		<path class="st8" d="M781.5,340.1c4.5-0.9,13.8-2.1,24.5,0c1.6,0.3,2.6,1.9,2.3,3.5l-3.1,15.3c-0.3,1.4-1.5,2.4-2.9,2.4h-16.6
			c-1.4,0-2.5-0.9-2.9-2.3l-3.7-15.3C778.9,342.1,779.9,340.4,781.5,340.1z"/>
		<path class="st13" d="M817.7,301.4c-2.6-3.1-1.3-3.1-4.2-3.6c2.6-4.3,3.9-9.4,3.6-14.9c-0.9-12.6-11.1-22.7-23.6-23.6
			c-14.9-1-27.3,10.8-27.3,25.4c0,5.3,1.6,10.2,4.4,14.3c-4.2,1.6-4.7,4.4-4.7,4.4s-3.4,7.3,5.3,7c8.7-0.3,6.2,1.6,8.2,3.4
			c2,1.7,5.6,3.8,8.3,1.9c2.7-1.8,5.1-5.7,8.3-3.4s8.7,1.4,9.2-0.9c0.4-2.3,2-5.8,5.9-5.3C815,306.6,820.7,305,817.7,301.4z"/>
		<line class="st7" x1="782.9" y1="339.9" x2="786.7" y2="361.3"/>
		<line class="st7" x1="788.9" y1="339.2" x2="790.2" y2="361.3"/>
		<line class="st7" x1="795.7" y1="339.2" x2="795" y2="361.3"/>
		<line class="st7" x1="801.3" y1="339.4" x2="798.9" y2="361.3"/>
		<line class="st7" x1="806" y1="340.2" x2="802.4" y2="361.3"/>
		<path class="st7" d="M779.5,344.7c0,0,15-4.3,28.3,0"/>
		<path class="st7" d="M780.9,350.7c0,0,14-3.4,25.9,0.3"/>
		<path class="st7" d="M782.7,357.9c0,0,12-3.3,22.8,0"/>
	</g>
	<path class="st14" d="M779,262.6c0,0,24,6,37.2,28.9c0,0,4.8-14.4-7.3-25.5C796.7,254.8,782.2,260.4,779,262.6z"/>
</g>
<path class="st15" d="M1024,120.1c0,0-229.8-12.9-199,0s149.9,17.5,151,28.9s-59.6,15.1-85.7,25.8c-37.4,15.3,92.9,5.1,133.7,14.1
	V120.1z"/>
<path class="st15" d="M0,296.6c0,0,204.1-5.4,225.1-1.2c21,4.2-133.8,3.9-152.5,8.9s76.6,9.8,89.5,21.1C175.1,336.7,0,335,0,335
	V296.6z"/>
<path class="st3" d="M0,683.7c0,0,121.3,0.8,136.7-1.7s148.6,4.3,102.2,11.9s-92.1-2.5-84.6,8.5c7.5,11,72.6,12.2,52.6,17.8
	C179.5,727.8,0,723.6,0,723.6V683.7z"/>
<path class="st15" d="M0,688.7c0,0,139.3-3.7,153.7-0.8c14.3,2.9-91.4,2.7-104.1,6.1s52.3,6.7,61.1,14.4S0,714.9,0,714.9V688.7z"/>
<polygon class="st16" points="42.9,265.5 329,263.5 329,355 42.9,357 "/>
<text transform="matrix(1 0 0 1 42.9219 296.4277)"><tspan x="0" y="0" class="st17 st18 st19">31 Flavors of </tspan><tspan x="0" y="46.1" class="st17 st18 st19">Happiness</tspan></text>
<g>
	<g>
		<g>
			<path class="st20" d="M266.7,600.1c3.6-3,33.4-5.9,36.6-6c-0.7-2.6-1.2-5.3-1.2-8.2c0-16.5,13.6-29.8,30.2-29.5
				c15.6,0.4,28.3,13,28.8,28.6c0.2,7.9,0.3,11.1-4.5,16.5c7.3-0.4,16.2,4.2,21.6,4.8c10,1.2-1.2,14.6-11.3,12.3
				c-10-2.3-24.9,0-27.6,1.5c-2.7,1.5-7.3,3.1-10,0.4c-2.7-2.7-12.9-3.8-13.7,0.8c-1.3,7.5-12.4,7.9-20.5,5.5
				c-14.6-4.4,2.4-16.6-1.4-19.2C286.1,602.5,262.4,603.6,266.7,600.1z"/>
			<g>
				<path class="st8" d="M371.2,500.2l-7.7,83c-0.1,1.3-1.2,2.2-2.5,2.2c-6.9-0.3-28.7-2.6-49.1-21.3c-1-0.9-1-2.4-0.2-3.3
					l55.3-62.4C368.6,496.7,371.5,497.9,371.2,500.2z"/>
				<g>
					<defs>
						<path id="SVGID_1_" d="M371.2,500.2l-7.7,83c-0.1,1.3-1.2,2.2-2.5,2.2c-6.9-0.3-28.7-2.6-49.1-21.3c-1-0.9-1-2.4-0.2-3.3
							l55.3-62.4C368.6,496.7,371.5,497.9,371.2,500.2z"/>
					</defs>
					<clipPath id="SVGID_2_">
						<use xlink:href="#SVGID_1_"  style="overflow:visible;"/>
					</clipPath>
					<g class="st21">
						<line class="st7" x1="341.6" y1="482.3" x2="300.6" y2="576.9"/>
						<line class="st7" x1="349.3" y1="485.6" x2="308.3" y2="580.3"/>
						<line class="st7" x1="357" y1="489" x2="316" y2="583.6"/>
						<line class="st7" x1="364.7" y1="492.3" x2="323.8" y2="587"/>
						<line class="st7" x1="372.5" y1="495.7" x2="331.5" y2="590.3"/>
						<line class="st7" x1="380.2" y1="499" x2="339.2" y2="593.6"/>
						<line class="st7" x1="387.9" y1="502.4" x2="346.9" y2="597"/>
						<line class="st7" x1="395.6" y1="505.7" x2="354.7" y2="600.3"/>
						<line class="st7" x1="403.4" y1="509.1" x2="362.4" y2="603.7"/>
						<line class="st7" x1="293.9" y1="522.7" x2="394" y2="497.9"/>
						<line class="st7" x1="295.9" y1="530.8" x2="396" y2="506.1"/>
						<line class="st7" x1="297.9" y1="539" x2="398" y2="514.3"/>
						<line class="st7" x1="299.9" y1="547.2" x2="400" y2="522.4"/>
						<line class="st7" x1="301.9" y1="555.4" x2="402" y2="530.6"/>
						<line class="st7" x1="303.9" y1="563.5" x2="404" y2="538.8"/>
						<line class="st7" x1="306" y1="571.7" x2="406.1" y2="547"/>
						<line class="st7" x1="308" y1="579.9" x2="408.1" y2="555.1"/>
						<line class="st7" x1="310" y1="588" x2="410.1" y2="563.3"/>
					</g>
				</g>
			</g>
		</g>
		<path class="st22" d="M302.5,596c2.1,1.1,23.9,17.5,51.1,7.1C353.6,603.1,322.5,617.6,302.5,596z"/>
	</g>
	<path class="st23" d="M311.9,564.1c0,0,17.5,18.4,49.1,21.3C361,585.4,320.3,593.1,311.9,564.1z"/>
</g>
<g>
	<g>
		<g>
			<g>
				<path class="st11" d="M861.2,597.4c-3.1-2.5-3.9-4.8-6.7-4.9c0.6-2.2,1-4.6,1-7c0-14.2-11.7-25.6-25.9-25.3
					c-13.4,0.3-24.3,11.2-24.7,24.6c-0.2,6.8,2.3,12.9,6.4,17.6c-4,0-22.6-0.4-23.9,5.6c-1.4,6.3,16,10.3,24.6,8.3
					c8.6-2,9.3-2.6,11.6-1.3c2.3,1.3,6.3,2.6,8.6,0.3c2.3-2.3,4-6.6,7.6-5c3.6,1.7,8.9-0.3,8.9-2.6c0-2.3,3-4,6.9-4.3
					S864.8,600.3,861.2,597.4z"/>
			</g>
			<g>
				<path class="st8" d="M798.3,513l49.1,52.2c0.7,0.8,0.7,2,0,2.8c-4.1,4.3-18,17-41.6,19.5c-1.1,0.1-2.1-0.7-2.3-1.8l-8.7-71.1
					C794.5,512.6,796.9,511.5,798.3,513z"/>
				<g>
					<defs>
						<path id="SVGID_3_" d="M798.3,513l49.1,52.2c0.7,0.8,0.7,2,0,2.8c-4.1,4.3-18,17-41.6,19.5c-1.1,0.1-2.1-0.7-2.3-1.8
							l-8.7-71.1C794.5,512.6,796.9,511.5,798.3,513z"/>
					</defs>
					<clipPath id="SVGID_4_">
						<use xlink:href="#SVGID_3_"  style="overflow:visible;"/>
					</clipPath>
					<g class="st24">
						<line class="st7" x1="769.9" y1="521.9" x2="807.5" y2="602.1"/>
						<line class="st7" x1="820" y1="602.3" x2="861" y2="523.8"/>
						<line class="st7" x1="776.4" y1="518.8" x2="814" y2="599"/>
						<line class="st7" x1="783" y1="515.7" x2="820.6" y2="595.9"/>
						<line class="st7" x1="789.5" y1="512.7" x2="827.1" y2="592.9"/>
						<line class="st7" x1="796.1" y1="509.6" x2="833.7" y2="589.8"/>
						<line class="st7" x1="802.6" y1="506.5" x2="840.2" y2="586.7"/>
						<line class="st7" x1="809.2" y1="503.5" x2="846.8" y2="583.7"/>
						<line class="st7" x1="815.7" y1="500.4" x2="853.3" y2="580.6"/>
						<line class="st7" x1="822.3" y1="497.3" x2="859.9" y2="577.5"/>
						<line class="st7" x1="768.7" y1="575.6" x2="809.7" y2="497.1"/>
						<line class="st7" x1="775.1" y1="578.9" x2="816.1" y2="500.4"/>
						<line class="st7" x1="781.6" y1="582.3" x2="822.6" y2="503.8"/>
						<line class="st7" x1="788" y1="585.6" x2="829" y2="507.1"/>
						<line class="st7" x1="794.4" y1="589" x2="835.4" y2="510.5"/>
						<line class="st7" x1="800.8" y1="592.3" x2="841.8" y2="513.8"/>
						<line class="st7" x1="807.2" y1="595.6" x2="848.2" y2="517.1"/>
						<line class="st7" x1="813.6" y1="599" x2="854.6" y2="520.5"/>
					</g>
				</g>
			</g>
		</g>
		<path class="st12" d="M813.7,602.4c0,0,21.3,8.7,39-7C852.7,595.3,838.2,616.7,813.7,602.4z"/>
	</g>
	<path class="st25" d="M847.9,567.3c-15.6,33.3-42.8,20.2-42.8,20.2C834.3,584.7,847.9,567.3,847.9,567.3z"/>
</g>
<g>
	<g>
		<path class="st26" d="M956.8,609.4c16.5-8.1,26.7-25.4,26.4-44.2c-0.8-54.5,4.1-153.7,50.9-161.6c64.7-11-52,23.5-22.8,190.9
			c19.5,111.6-20.9,138.8-58.2,138.4c-28.3-0.3-49.5-27.5-44.2-55.8C913.5,653.1,925.7,624.7,956.8,609.4z"/>
	</g>
	<path class="st27" d="M1008.4,613.5c0,0-12.7-33.1-34-9.3C974.3,604.2,988,590.2,1008.4,613.5z"/>
	<path class="st28" d="M964.9,611.9c0,0-72.7,34.4-43.4,101.1C921.5,713,908.2,644.8,964.9,611.9z"/>
	<path class="st29" d="M1038.8,405.3c0,0-39-3.3-48.1,88.8C990.6,494.1,1002,422.1,1038.8,405.3z"/>
</g>
<path class="st3" d="M420.6,576.6h-0.4v-0.5c0-3.2-2.6-5.9-5.9-5.9H414v-0.9c0-3.2-2.6-5.9-5.9-5.9H405c-3.2,0-5.9,2.6-5.9,5.9v0.9
	h-1.3c-3.2,0-5.9,2.6-5.9,5.9v0.5h-0.4c-3,0-5.5,2.5-5.5,5.5c0,3,2.5,5.5,5.5,5.5h29.1c3,0,5.5-2.5,5.5-5.5
	C426.2,579.1,423.7,576.6,420.6,576.6z"/>
<path class="st3" d="M921,564.9h-0.4v-0.5c0-3.1-2.5-5.7-5.7-5.7h-0.3v-0.9c0-3.1-2.5-5.7-5.7-5.7H906c-3.1,0-5.7,2.5-5.7,5.7v0.9
	h-1.3c-3.1,0-5.7,2.5-5.7,5.7v0.5H893c-2.9,0-5.3,2.4-5.3,5.3s2.4,5.3,5.3,5.3h28c2.9,0,5.3-2.4,5.3-5.3S923.9,564.9,921,564.9z"/>
<ellipse class="st4" cx="657.4" cy="709.5" rx="151.5" ry="40.5"/>
<g>
	
		<ellipse transform="matrix(0.1015 -0.9948 0.9948 0.1015 150.5506 1529.6317)" class="st30" cx="922.1" cy="681.5" rx="59.4" ry="59.4"/>
	<g>
		
			<ellipse transform="matrix(0.1015 -0.9948 0.9948 0.1015 210.2693 1468.5503)" class="st31" cx="918.1" cy="617.9" rx="19.4" ry="19.4"/>
		<path class="st30" d="M910,581.4c0,0,5.2,16.4,4.3,23.3l0.8,0c0,0-1.3-22.5-3.5-25.7L910,581.4z"/>
		<path class="st32" d="M911.7,604.7c0,0,2,3.3,6.1,1.4C917.8,606.1,912.6,611.1,911.7,604.7z"/>
		<path class="st32" d="M926,602.3c0,0,12.8,4.4,8.6,22.7C934.6,625,935.7,613.4,926,602.3z"/>
	</g>
	<path class="st33" d="M943.5,629.9c0,0,36.3,11.5,34,64.3C977.5,694.2,977,660.6,943.5,629.9z"/>
	<g>
		<path class="st34" d="M941.7,742.8c-7.8-7.8-8.3-14-18.4-13.1c-0.7,0.1-1.7,0.2-2.9,0.5c1.2-3.8,2.1-7.8,2.5-12
			c3.3-32.6-20.4-61.8-53.1-65.1c-32.6-3.3-61.8,20.4-65.1,53.1c-1.3,12.7,1.5,24.9,7.4,35.3c1.4,2.4,2.9,4.8,4.6,7
			c-5.1,5.3-8.6,11.2-8.6,11.2s-6.5,18.1,14,15.5c20.5-2.6,22.3-4,27.3-0.3s14,7.7,20,2.8c2.6-2.1,5-5.1,7.5-7.4
			c3.4-0.8,6.7-1.8,9.8-3.1c0.5,0.2,1.1,0.5,1.7,0.8c8.1,4.7,20.9,1.4,21.5-4.1c0.6-5.4,7.9-8.6,17.2-8.4
			C936.5,755.6,949.5,750.7,941.7,742.8z"/>
		<polygon class="st30" points="825.3,682.6 820.1,688.3 824.3,692.6 		"/>
		<polygon class="st30" points="848.9,670 841.2,668.9 840.1,674.9 		"/>
		<polygon class="st30" points="884,670.4 876.3,669.4 875.2,675.4 		"/>
		<polygon class="st30" points="901,690.5 893.3,689.5 892.2,695.4 		"/>
		<polygon class="st30" points="851.8,699.7 844.8,703.2 847.2,708.7 		"/>
		<polygon class="st30" points="841.4,728.3 833.6,729.2 834,735.3 		"/>
		<polygon class="st30" points="874.5,686.5 866.8,687.4 867.2,693.4 		"/>
		<polygon class="st30" points="861.9,741.5 860.3,733.9 854.3,734.9 		"/>
		<polygon class="st30" points="878.7,726.4 877,718.8 871,719.8 		"/>
		<polygon class="st30" points="825.1,715.3 817.4,714.6 816.5,720.6 		"/>
		<path class="st35" d="M824,748.8c0,0,39.8,15,74.3-1.8C898.4,747,856.6,774,824,748.8z"/>
		<path class="st36" d="M832.6,664.6c0,0-26.5,15.2-23.7,49.1C808.9,713.7,809,690.3,832.6,664.6z"/>
	</g>
	<path class="st37" d="M1029.9,757.3c-6.6-6.7-8-12.1-14.5-13c2-5,3.4-10.4,4-16.1c3.3-32.6-20.4-61.8-53.1-65.1
		c-32.6-3.3-61.8,20.4-65.1,53.1c-1.5,15.1,2.7,29.5,11,40.9c-8.8,5.2-15.8,17.1-15.8,17.1s-6.5,18.1,14,15.5
		c20.5-2.6,22.3-4,27.3-0.3c5.1,3.6,14,7.7,20,2.8c6-4.9,10.8-14.5,18.9-9.8c8.1,4.7,20.9,1.4,21.5-4.1c0.6-5.4,7.9-8.6,17.2-8.4
		C1024.7,770,1037.7,765.1,1029.9,757.3z"/>
	<path class="st38" d="M903.2,738.5c0,0-13.5-37.9,23.3-65.2c0,0,30.6-25.1,68.1,0.3c0,0,20.8,11.9,24.1,37.3
		c3.3,25.4-3.1,34.9-8.6,12.5c-5.5-22.4-12.4-40.8-14.8-28.3c-2.4,12.5,4.2,39.9-3.2,28.5c-7.4-11.4,0.9-33.5-10.6-30.6
		s-2.9,25.6-8.2,24.3s-7.5-3.1-11.4-10.5c-3.9-7.4-10.7-5.8-11.4-0.8c-0.7,5-6,2.9-3.1,13.4c2.8,10.4,8.5,23.5,1,20.4
		c-7.5-3.1-3.7-17.5-8.8-21.2c-5.1-3.6-11,8.2-7.5,19.5c3.5,11.3-0.4,11.7-4.6,6.6c-4.2-5.1-4.9-20.8-9.2-16.5s6.2,15.5-0.8,15.5
		s-5.5-7.6-9.3-8C904.2,735.1,903.2,738.5,903.2,738.5z"/>
	<path class="st39" d="M942.4,667.2c0,0,26.9-11.3,50.6,9.1C993,676.3,978.6,663.9,942.4,667.2z"/>
	<path class="st40" d="M919.5,756.8c0,0,47.2,16.7,82.5-8.6C1002,748.2,960.1,781.9,919.5,756.8z"/>
</g>
</svg>
