<svg xmlns="http://www.w3.org/2000/svg" xmlns:xlink="http://www.w3.org/1999/xlink" viewBox="0 0 1053.94 688.44"><defs><style>.cls-1,.cls-15,.cls-38,.cls-39,.cls-6{fill:none;}.cls-2{isolation:isolate;}.cls-3{clip-path:url(#clip-path);}.cls-4{fill:#ba235f;}.cls-5{fill:#cc2e6e;}.cls-6{stroke:#f0f0f0;stroke-width:6px;}.cls-38,.cls-39,.cls-6{stroke-linecap:round;stroke-linejoin:round;}.cls-7{fill:#f9c7de;}.cls-8{fill:#f78bb7;}.cls-9{fill:#fc97c5;}.cls-10{fill:#f9e8f1;}.cls-11{fill:#fcd9eb;}.cls-12{fill:#efcc5e;}.cls-13{fill:#c49d6e;}.cls-14{clip-path:url(#clip-path-2);}.cls-15{stroke:#aa8153;stroke-miterlimit:10;}.cls-16{fill:#f7d26b;}.cls-17{fill:#e8c45d;}.cls-18{fill:#33d4ff;}.cls-19{clip-path:url(#clip-path-3);}.cls-20{fill:#58dbf9;}.cls-21{fill:#2ecaef;}.cls-22{fill:#c94881;}.cls-23{fill:#b7427a;}.cls-24{fill:#ce4d8b;}.cls-25{fill:#d35390;}.cls-26{fill:#f0f0f0;}.cls-27{fill:#2f518b;}.cls-28{fill:#d96a96;}.cls-29{fill:#476b9e;}.cls-30{fill:#f4f4f4;}.cls-31{opacity:0.15;mix-blend-mode:multiply;}.cls-32{fill:#e27aa5;}.cls-33{fill:#353534;}.cls-34{fill:#474747;}.cls-35{fill:#fcfcfc;}.cls-36{fill:#b51f63;}.cls-37{fill:#c12975;}.cls-38,.cls-39{stroke:#b51f63;}.cls-39{stroke-width:2px;}.cls-40{fill:#3f1608;}.cls-41{fill:#ff3f12;}.cls-42{fill:#ff8871;}.cls-43{fill:#561c0c;}.cls-44{fill:#a6edaa;}.cls-45{fill:#c0f9c1;}.cls-46{fill:#d4fcd5;}.cls-47{fill:#f7f7f7;}.cls-48{fill:#d65b7e;}.cls-49{fill:#dd668e;}.cls-50{fill:#fff;}</style><clipPath id="clip-path" transform="translate(0 -2.87)"><rect class="cls-1" y="-103" width="1024" height="768"/></clipPath><clipPath id="clip-path-2" transform="translate(0 -2.87)"><path class="cls-1" d="M371.24,397.17l-7.74,83a2.38,2.38,0,0,1-2.47,2.16c-6.94-.26-28.72-2.63-49.1-21.3a2.39,2.39,0,0,1-.18-3.35l55.34-62.36A2.38,2.38,0,0,1,371.24,397.17Z"/></clipPath><clipPath id="clip-path-3" transform="translate(0 -2.87)"><path class="cls-1" d="M798.27,410l49.05,52.21a2,2,0,0,1,0,2.81c-4.12,4.32-18,17-41.63,19.49a2.05,2.05,0,0,1-2.26-1.79l-8.68-71.08A2,2,0,0,1,798.27,410Z"/></clipPath></defs><title>fhvj</title><g class="cls-2"><g id="Layer_1" data-name="Layer 1"><g class="cls-3"><ellipse class="cls-4" cx="926.72" cy="380.43" rx="27.25" ry="42.91"/><path class="cls-5" d="M954.94,383.3c0,23.7-13.62,40.48-27.25,42.91-.2,0-.1-85.81,0-85.81C940.34,340.48,954.94,359.61,954.94,383.3Z" transform="translate(0 -2.87)"/><line class="cls-6" x1="927.2" y1="356.19" x2="927.2" y2="459.3"/><line class="cls-6" x1="927.2" y1="382.13" x2="913.23" y2="359.51"/><line class="cls-6" x1="927.87" y1="391.58" x2="937.18" y2="382.13"/><line class="cls-6" x1="927.2" y1="418.96" x2="913.9" y2="398.76"/><ellipse class="cls-4" cx="805.27" cy="365.46" rx="43.27" ry="61"/><path class="cls-5" d="M848.54,368.33c0,33.69-19.37,61-43.27,61-.27,0-.27-122,0-122C829.17,307.33,848.54,334.64,848.54,368.33Z" transform="translate(0 -2.87)"/><line class="cls-6" x1="805" y1="349.46" x2="805" y2="467.46"/><line class="cls-6" x1="794.43" y1="362.64" x2="804.69" y2="377.46"/><line class="cls-6" x1="805.63" y1="398.46" x2="828" y2="374.46"/><line class="cls-6" x1="804.91" y1="419.37" x2="781" y2="377.46"/><ellipse class="cls-4" cx="391.04" cy="361.13" rx="47" ry="83"/><path class="cls-5" d="M438,364c0,45.84-21,83-47,83V281C417,281,438,318.16,438,364Z" transform="translate(0 -2.87)"/><line class="cls-6" x1="391.04" y1="327.13" x2="391.04" y2="482.13"/><line class="cls-6" x1="391.04" y1="366.13" x2="370.04" y2="332.13"/><line class="cls-6" x1="392.04" y1="380.33" x2="406.04" y2="366.13"/><line class="cls-6" x1="391.04" y1="421.48" x2="371.04" y2="391.13"/><path class="cls-7" d="M0,186.3s177.67,1.2,200.33-2.51S418,190,350,201.2s-135-3.73-124,12.42,106.35,17.88,77,26.08c-40,11.18-303,5-303,5Z" transform="translate(0 -2.87)"/><path class="cls-8" d="M1024,465.67S451.5,454,262,488.07c-13.1,2.36-128.86,29.29-4.91,45.69S512,564.22,430.86,598.2,287.41,665,457.37,665c141.09,0,566.63-5.18,566.63-5.18Z" transform="translate(0 -2.87)"/><path class="cls-9" d="M1024,472.62s-519.2-9.76-661.45,18.68c-9.83,2-96.73,24.42-3.68,38.1s191.31,25.4,130.44,53.73-105,75.06,21.45,81.91c105.78,5.73,513.24,0,513.24,0Z" transform="translate(0 -2.87)"/><path class="cls-7" d="M1024,5S791-3,762,12s55,16,90,25,92.65,26.9,0,26c-89.27-.87-214,8.15-158,22s157,12,204,9,126,1,126,1Z" transform="translate(0 -2.87)"/><path class="cls-10" d="M258.92,82.5a17.6,17.6,0,0,0-31.76-13.81,12.34,12.34,0,0,0-19.79,11.68A13,13,0,0,0,215,103.93H249a13,13,0,0,0,10-21.43Z" transform="translate(0 -2.87)"/><path class="cls-10" d="M655.08,260.2a17.6,17.6,0,0,0-31.76-13.81,12.34,12.34,0,0,0-19.79,11.68,13,13,0,0,0,7.67,23.56h33.91a13,13,0,0,0,10-21.43Z" transform="translate(0 -2.87)"/><path class="cls-10" d="M972.6,172.42a13.47,13.47,0,0,0-24.31-10.57,9.45,9.45,0,0,0-15.14,8.94,10,10,0,0,0,5.87,18h26a10,10,0,0,0,7.62-16.4Z" transform="translate(0 -2.87)"/><path class="cls-10" d="M199.79,352.45a24.05,24.05,0,0,0-43.4-18.88,16.87,16.87,0,0,0-27,16,17.79,17.79,0,0,0,10.48,32.2h46.35a17.79,17.79,0,0,0,13.61-29.29Z" transform="translate(0 -2.87)"/><path class="cls-11" d="M1024,17.06s-229.81-12.92-199,0S974.82,34.61,976,46s-59.57,15.11-85.68,25.77C853,87,983.26,76.85,1024,85.86Z" transform="translate(0 -2.87)"/><path class="cls-11" d="M0,193.58s204.14-5.36,225.12-1.16-133.84,3.93-152.45,8.9,76.61,9.82,89.52,21.11S0,232,0,232Z" transform="translate(0 -2.87)"/><path class="cls-7" d="M0,580.71s121.27.82,136.74-1.71,148.57,4.25,102.15,11.88-92.14-2.54-84.64,8.48,72.59,12.2,52.56,17.8C179.51,624.79,0,620.56,0,620.56Z" transform="translate(0 -2.87)"/><path class="cls-11" d="M0,585.69s139.33-3.66,153.65-.79S62.3,587.58,49.59,591s52.29,6.7,61.1,14.41S0,611.9,0,611.9Z" transform="translate(0 -2.87)"/><path class="cls-12" d="M266.68,497.13c3.61-3,33.35-5.91,36.6-6a29.47,29.47,0,1,1,57.78-9c.22,7.88.34,11.1-4.49,16.51,7.26-.37,16.17,4.16,21.62,4.82,10,1.2-1.24,14.61-11.25,12.3s-24.89,0-27.58,1.49-7.31,3.08-10,.38-12.94-3.76-13.74.82c-1.31,7.47-12.4,7.94-20.55,5.5-14.55-4.35,2.42-16.63-1.4-19.25C286.12,499.52,262.44,500.59,266.68,497.13Z" transform="translate(0 -2.87)"/><path class="cls-13" d="M371.24,397.17l-7.74,83a2.38,2.38,0,0,1-2.47,2.16c-6.94-.26-28.72-2.63-49.1-21.3a2.39,2.39,0,0,1-.18-3.35l55.34-62.36A2.38,2.38,0,0,1,371.24,397.17Z" transform="translate(0 -2.87)"/><g class="cls-14"><line class="cls-15" x1="341.57" y1="376.43" x2="300.59" y2="471.05"/><line class="cls-15" x1="349.29" y1="379.77" x2="308.32" y2="474.39"/><line class="cls-15" x1="357.02" y1="383.12" x2="316.04" y2="477.74"/><line class="cls-15" x1="364.74" y1="386.46" x2="323.76" y2="481.08"/><line class="cls-15" x1="372.47" y1="389.81" x2="331.49" y2="484.43"/><line class="cls-15" x1="380.19" y1="393.15" x2="339.21" y2="487.77"/><line class="cls-15" x1="387.91" y1="396.5" x2="346.94" y2="491.12"/><line class="cls-15" x1="395.64" y1="399.84" x2="354.66" y2="494.46"/><line class="cls-15" x1="403.36" y1="403.19" x2="362.38" y2="497.81"/><line class="cls-15" x1="293.85" y1="416.79" x2="393.95" y2="392.06"/><line class="cls-15" x1="295.87" y1="424.97" x2="395.97" y2="400.24"/><line class="cls-15" x1="297.89" y1="433.14" x2="397.99" y2="408.41"/><line class="cls-15" x1="299.91" y1="441.31" x2="400.01" y2="416.58"/><line class="cls-15" x1="301.93" y1="449.48" x2="402.03" y2="424.75"/><line class="cls-15" x1="303.94" y1="457.65" x2="404.05" y2="432.92"/><line class="cls-15" x1="305.96" y1="465.82" x2="406.07" y2="441.09"/><line class="cls-15" x1="307.98" y1="474" x2="408.08" y2="449.27"/><line class="cls-15" x1="310" y1="482.17" x2="410.1" y2="457.44"/></g><path class="cls-16" d="M302.5,493c2.06,1.08,23.92,17.54,51.09,7.08C353.59,500.06,322.52,514.63,302.5,493Z" transform="translate(0 -2.87)"/><path class="cls-17" d="M311.94,461.08s17.46,18.38,49.1,21.3C361,482.38,320.28,490.07,311.94,461.08Z" transform="translate(0 -2.87)"/><path class="cls-18" d="M861.19,494.37c-3.1-2.54-3.92-4.79-6.72-4.9a25.31,25.31,0,1,0-43.2,9.86c-4,0-22.61-.44-23.91,5.56-1.38,6.34,16,10.32,24.56,8.33s9.26-2.65,11.57-1.32,6.28,2.65,8.6.33,4-6.61,7.6-5,8.93-.33,8.93-2.65,3-4,6.94-4.3S864.83,497.35,861.19,494.37Z" transform="translate(0 -2.87)"/><path class="cls-13" d="M798.27,410l49.05,52.21a2,2,0,0,1,0,2.81c-4.12,4.32-18,17-41.63,19.49a2.05,2.05,0,0,1-2.26-1.79l-8.68-71.08A2,2,0,0,1,798.27,410Z" transform="translate(0 -2.87)"/><g class="cls-19"><line class="cls-15" x1="769.88" y1="416.02" x2="807.49" y2="496.21"/><line class="cls-15" x1="820" y1="496.47" x2="861.01" y2="417.97"/><line class="cls-15" x1="776.43" y1="412.95" x2="814.04" y2="493.14"/><line class="cls-15" x1="782.98" y1="409.88" x2="820.58" y2="490.07"/><line class="cls-15" x1="789.52" y1="406.81" x2="827.13" y2="487"/><line class="cls-15" x1="796.07" y1="403.74" x2="833.67" y2="483.93"/><line class="cls-15" x1="802.61" y1="400.67" x2="840.22" y2="480.86"/><line class="cls-15" x1="809.16" y1="397.6" x2="846.76" y2="477.79"/><line class="cls-15" x1="815.7" y1="394.53" x2="853.31" y2="474.72"/><line class="cls-15" x1="822.25" y1="391.46" x2="859.86" y2="471.65"/><line class="cls-15" x1="768.73" y1="469.69" x2="809.74" y2="391.19"/><line class="cls-15" x1="775.14" y1="473.04" x2="816.15" y2="394.54"/><line class="cls-15" x1="781.55" y1="476.39" x2="822.56" y2="397.89"/><line class="cls-15" x1="787.96" y1="479.74" x2="828.96" y2="401.24"/><line class="cls-15" x1="794.37" y1="483.08" x2="835.37" y2="404.58"/><line class="cls-15" x1="800.78" y1="486.43" x2="841.78" y2="407.93"/><line class="cls-15" x1="807.18" y1="489.78" x2="848.19" y2="411.28"/><line class="cls-15" x1="813.59" y1="493.13" x2="854.6" y2="414.62"/></g><path class="cls-20" d="M813.72,499.37s21.26,8.74,39-7C852.73,492.32,838.22,513.7,813.72,499.37Z" transform="translate(0 -2.87)"/><path class="cls-21" d="M847.88,464.32c-15.58,33.29-42.82,20.21-42.82,20.21C834.29,481.75,847.88,464.32,847.88,464.32Z" transform="translate(0 -2.87)"/><path class="cls-22" d="M956.78,506.4c16.51-8.12,26.68-25.41,26.39-44.22-.84-54.5,4.14-153.66,50.89-161.57,64.74-11-52,23.51-22.78,190.89,19.46,111.58-20.87,138.84-58.18,138.39-28.34-.34-49.49-27.51-44.16-55.79C913.47,550.1,925.68,521.7,956.78,506.4Z" transform="translate(0 -2.87)"/><path class="cls-23" d="M1008.36,510.46s-12.69-33.13-34-9.28C974.35,501.18,988,487.23,1008.36,510.46Z" transform="translate(0 -2.87)"/><path class="cls-24" d="M964.89,508.88S892.17,543.29,921.47,610C921.47,610,908.18,541.77,964.89,508.88Z" transform="translate(0 -2.87)"/><path class="cls-25" d="M1038.76,302.35s-39-3.26-48.14,88.8C990.61,391.14,1002,319.14,1038.76,302.35Z" transform="translate(0 -2.87)"/><path class="cls-7" d="M420.61,473.57h-.43v-.48a5.9,5.9,0,0,0-5.89-5.89H414v-.93a5.9,5.9,0,0,0-5.89-5.89H405a5.9,5.9,0,0,0-5.89,5.89v.93h-1.33a5.9,5.9,0,0,0-5.89,5.89v.48h-.43a5.54,5.54,0,0,0,0,11.08h29.14a5.54,5.54,0,0,0,0-11.08Z" transform="translate(0 -2.87)"/><path class="cls-7" d="M921,461.87h-.41v-.46a5.67,5.67,0,0,0-5.66-5.66h-.33v-.9a5.67,5.67,0,0,0-5.66-5.66H906a5.67,5.67,0,0,0-5.66,5.66v.9h-1.28a5.67,5.67,0,0,0-5.66,5.66v.46H893a5.32,5.32,0,0,0,0,10.64h28a5.32,5.32,0,0,0,0-10.64Z" transform="translate(0 -2.87)"/><ellipse class="cls-8" cx="657.41" cy="603.67" rx="151.52" ry="40.54"/><path class="cls-26" d="M522.77,451.28l-14,73.75-11.63,5.23a14.2,14.2,0,0,0-8.37,12.95v28.06A13.76,13.76,0,0,0,502.52,585H738.88a24.88,24.88,0,0,0,24.88-24.88V448.52a2.48,2.48,0,0,0-2.48-2.48H529.1A6.45,6.45,0,0,0,522.77,451.28Z" transform="translate(0 -2.87)"/><path class="cls-27" d="M526.24,468.69l-10.71,54.42a3.29,3.29,0,0,0,3.23,3.92h19.71a3.29,3.29,0,0,0,3.29-3.29V469.32a3.29,3.29,0,0,0-3.29-3.29h-9A3.29,3.29,0,0,0,526.24,468.69Z" transform="translate(0 -2.87)"/><rect class="cls-27" x="549.59" y="463.17" width="37.18" height="61" rx="3.94" ry="3.94"/><path class="cls-28" d="M529.81,446H761.13a2.64,2.64,0,0,1,2.64,2.64v5.22a2.64,2.64,0,0,1-2.64,2.64H521.77l.86-4.56A7.3,7.3,0,0,1,529.81,446Z" transform="translate(0 -2.87)"/><polygon class="cls-29" points="549.59 513.43 579.35 463.17 582.95 463.17 549.59 520.22 549.59 513.43"/><polygon class="cls-29" points="586.76 467.94 553.76 524.16 559.93 524.16 586.76 477.3 586.76 467.94"/><polygon class="cls-30" points="763.76 453.66 669.28 550.16 763.76 550.16 763.76 453.66"/><rect class="cls-27" x="629.59" y="463.17" width="118.18" height="61"/><g class="cls-31"><path class="cls-29" d="M626.16,482c.14,2.89,3.58,5.21,7.8,5.21s7.66-2.32,7.8-5.21V473.1H626.15Z" transform="translate(0 -2.87)"/><path class="cls-29" d="M641.79,482c.14,2.89,3.58,5.21,7.8,5.21s7.66-2.32,7.8-5.21V473.1H641.78Z" transform="translate(0 -2.87)"/><path class="cls-29" d="M657.43,482c.14,2.89,3.58,5.21,7.8,5.21s7.66-2.32,7.8-5.21V473.1H657.41Z" transform="translate(0 -2.87)"/><path class="cls-29" d="M673.06,482c.14,2.89,3.58,5.21,7.8,5.21s7.66-2.32,7.8-5.21V473.1H673Z" transform="translate(0 -2.87)"/><path class="cls-29" d="M688.69,482c.14,2.89,3.58,5.21,7.8,5.21s7.66-2.32,7.8-5.21V473.1H688.68Z" transform="translate(0 -2.87)"/><path class="cls-29" d="M704.32,482c.14,2.89,3.58,5.21,7.8,5.21s7.66-2.32,7.8-5.21V473.1H704.31Z" transform="translate(0 -2.87)"/><path class="cls-29" d="M720,482c.14,2.89,3.58,5.21,7.8,5.21s7.66-2.32,7.8-5.21V473.1H719.94Z" transform="translate(0 -2.87)"/><path class="cls-29" d="M735.57,473.1V482c.14,2.89,3.58,5.21,7.8,5.21s7.66-2.32,7.8-5.21V473.1Z" transform="translate(0 -2.87)"/></g><path class="cls-28" d="M626.15,523H751.2v.93a3.13,3.13,0,0,1-3.13,3.13H629.28a3.13,3.13,0,0,1-3.13-3.13Z" transform="translate(0 -2.87)"/><path class="cls-28" d="M629.5,466a3.35,3.35,0,0,0-3.35,3.35V475c.14,2.89,3.58,5.21,7.8,5.21s7.66-2.32,7.8-5.21V466Z" transform="translate(0 -2.87)"/><path class="cls-7" d="M641.78,466V475c.14,2.89,3.58,5.21,7.8,5.21s7.66-2.32,7.8-5.21V466Z" transform="translate(0 -2.87)"/><path class="cls-28" d="M657.41,466V475c.14,2.89,3.58,5.21,7.8,5.21s7.66-2.32,7.8-5.21V466Z" transform="translate(0 -2.87)"/><path class="cls-7" d="M673,466V475c.14,2.89,3.58,5.21,7.8,5.21s7.66-2.32,7.8-5.21V466Z" transform="translate(0 -2.87)"/><path class="cls-28" d="M688.67,466V475c.14,2.89,3.58,5.21,7.8,5.21s7.66-2.32,7.8-5.21V466Z" transform="translate(0 -2.87)"/><path class="cls-7" d="M704.31,466V475c.14,2.89,3.58,5.21,7.8,5.21s7.66-2.32,7.8-5.21V466Z" transform="translate(0 -2.87)"/><path class="cls-28" d="M719.94,466V475c.14,2.89,3.58,5.21,7.8,5.21s7.66-2.32,7.8-5.21V466Z" transform="translate(0 -2.87)"/><path class="cls-7" d="M735.57,466V475c.14,2.89,3.58,5.21,7.8,5.21s7.66-2.32,7.8-5.21v-5.58a3.35,3.35,0,0,0-3.35-3.35Z" transform="translate(0 -2.87)"/><path class="cls-32" d="M763.76,448.74v7.79H688.68L747.76,446h13.29A2.71,2.71,0,0,1,763.76,448.74Z" transform="translate(0 -2.87)"/><rect class="cls-28" x="484.25" y="541.42" width="283.6" height="13.97" rx="5.15" ry="5.15"/><rect class="cls-26" x="484.25" y="545.9" width="283.6" height="5"/><circle class="cls-33" cx="720.76" cy="576.67" r="27"/><circle class="cls-26" cx="720.76" cy="576.67" r="15"/><path class="cls-34" d="M728.67,556.46S741.17,559,745,575.11A41.59,41.59,0,0,0,728.67,556.46Z" transform="translate(0 -2.87)"/><path class="cls-35" d="M736.17,579.53a15,15,0,0,1-15,15v-30A15,15,0,0,1,736.17,579.53Z" transform="translate(0 -2.87)"/><circle class="cls-33" cx="528.76" cy="576.67" r="27"/><circle class="cls-26" cx="528.76" cy="576.67" r="15"/><path class="cls-35" d="M544,579.53a15,15,0,0,1-15,15v-30A15,15,0,0,1,544,579.53Z" transform="translate(0 -2.87)"/><path class="cls-34" d="M536.54,556.27s12.5,2.54,16.32,18.65A41.59,41.59,0,0,0,536.54,556.27Z" transform="translate(0 -2.87)"/><polygon class="cls-36" points="582.29 433.39 582.29 435.84 579.92 435.84 579.92 439.55 582.29 439.55 582.29 444.63 578.92 444.63 578.92 446.91 588.79 446.91 588.79 444.63 585.25 444.63 585.25 439.45 587.79 439.45 587.79 435.84 585.25 435.84 585.25 433.39 582.29 433.39"/><rect class="cls-37" x="579.9" y="437.26" width="7.89" height="0.89"/><polygon class="cls-36" points="711.92 429.38 711.92 435.82 709.55 435.82 709.55 439.54 711.92 439.54 711.92 444.62 708.55 444.62 708.55 446.89 718.42 446.89 718.42 444.62 714.88 444.62 714.88 439.44 717.42 439.44 717.42 435.82 714.88 435.82 714.88 429.38 711.92 429.38"/><rect class="cls-37" x="709.53" y="437.25" width="7.89" height="0.89"/><image width="2000" height="571" transform="translate(561.09 389.05) scale(0.09)" xlink:href="../../../Desktop/2000px-Baskin_Robbins.png"/><line class="cls-38" x1="606.38" y1="463.17" x2="606.38" y2="533.32"/><line class="cls-39" x1="541.76" y1="530.34" x2="541.76" y2="537.67"/><path class="cls-29" d="M541.76,469.32v5.13l-23,52.58a3.5,3.5,0,0,1-2.31-1Z" transform="translate(0 -2.87)"/><circle class="cls-40" cx="922.08" cy="578.47" r="59.42" transform="translate(253.02 1434.22) rotate(-84.18)"/><circle class="cls-41" cx="918.13" cy="514.87" r="19.4" transform="translate(312.74 1373.13) rotate(-84.18)"/><path class="cls-40" d="M910,478.43s5.22,16.37,4.35,23.35h.78s-1.25-22.53-3.54-25.66Z" transform="translate(0 -2.87)"/><path class="cls-42" d="M911.66,501.73s2,3.33,6.1,1.4C917.76,503.13,912.58,508.06,911.66,501.73Z" transform="translate(0 -2.87)"/><path class="cls-42" d="M926,499.28s12.81,4.43,8.6,22.72C934.56,522,935.74,510.43,926,499.28Z" transform="translate(0 -2.87)"/><path class="cls-43" d="M943.46,526.89s36.28,11.5,34,64.33C977.47,591.22,977,557.62,943.46,526.89Z" transform="translate(0 -2.87)"/><path class="cls-44" d="M941.69,639.85c-7.79-7.82-8.33-14-18.37-13.11a25.35,25.35,0,0,0-2.86.48,59.46,59.46,0,1,0-103.75,18.22,68.1,68.1,0,0,0-8.59,11.21s-6.52,18.06,14,15.47,22.25-4,27.34-.33,14,7.67,20,2.82c2.58-2.1,5-5.09,7.47-7.44a59.09,59.09,0,0,0,9.8-3.12,10.26,10.26,0,0,1,1.67.79c8.1,4.73,20.93,1.35,21.48-4.05s7.89-8.56,17.24-8.38S949.47,647.66,941.69,639.85Z" transform="translate(0 -2.87)"/><polygon class="cls-40" points="825.34 576.73 820.08 582.44 824.32 586.77 825.34 576.73"/><polygon class="cls-40" points="848.9 564.09 841.21 563.07 840.1 569.03 848.9 564.09"/><polygon class="cls-40" points="883.96 564.55 876.27 563.52 875.16 569.48 883.96 564.55"/><polygon class="cls-40" points="901.03 584.62 893.34 583.6 892.23 589.56 901.03 584.62"/><polygon class="cls-40" points="851.77 593.86 844.82 597.32 847.24 602.88 851.77 593.86"/><polygon class="cls-40" points="841.36 622.48 833.65 623.36 834.03 629.41 841.36 622.48"/><polygon class="cls-40" points="874.5 580.6 866.79 581.49 867.17 587.54 874.5 580.6"/><polygon class="cls-40" points="861.95 635.61 860.28 628.03 854.3 629.03 861.95 635.61"/><polygon class="cls-40" points="878.7 620.55 877.03 612.97 871.05 613.97 878.7 620.55"/><polygon class="cls-40" points="825.12 609.48 817.39 608.7 816.48 614.7 825.12 609.48"/><path class="cls-45" d="M824,645.79s39.82,15,74.3-1.78C898.35,644,856.59,671,824,645.79Z" transform="translate(0 -2.87)"/><path class="cls-46" d="M832.64,561.62A52.54,52.54,0,0,0,808.9,610.7S809,587.29,832.64,561.62Z" transform="translate(0 -2.87)"/><path class="cls-47" d="M1029.94,654.31c-6.64-6.67-8-12.12-14.52-13A59.42,59.42,0,1,0,912.18,654c-8.77,5.16-15.82,17.12-15.82,17.12s-6.52,18.06,14,15.47,22.25-4,27.34-.33,14,7.67,20,2.82,10.84-14.5,18.94-9.77,20.93,1.35,21.48-4.05,7.89-8.56,17.24-8.38S1037.72,662.13,1029.94,654.31Z" transform="translate(0 -2.87)"/><path class="cls-48" d="M903.15,635.49s-13.48-37.93,23.32-65.23c0,0,30.64-25.13,68.07.31,0,0,20.77,11.88,24.09,37.26s-3.11,34.87-8.63,12.46-12.41-40.8-14.76-28.3,4.21,39.93-3.21,28.52.86-33.45-10.64-30.59-2.9,25.59-8.22,24.26-7.49-3.1-11.41-10.53-10.73-5.83-11.43-.8-6,2.93-3.11,13.36,8.53,23.5,1,20.39-3.67-17.54-8.76-21.18-11,8.24-7.45,19.53-.41,11.66-4.57,6.56-4.9-20.79-9.24-16.55,6.23,15.46-.8,15.52-5.47-7.58-9.33-8A4.59,4.59,0,0,0,903.15,635.49Z" transform="translate(0 -2.87)"/><path class="cls-49" d="M942.38,564.23s26.9-11.3,50.57,9.06C993,573.29,978.61,560.91,942.38,564.23Z" transform="translate(0 -2.87)"/><path class="cls-50" d="M919.47,653.81s47.18,16.67,82.53-8.6C1002,645.22,960.1,678.87,919.47,653.81Z" transform="translate(0 -2.87)"/></g></g></g></svg>