<svg id="Layer_1" data-name="Layer 1" xmlns="http://www.w3.org/2000/svg" viewBox="0 0 100 100"><defs><style>.cls-1{fill:#0059ab;}.cls-2,.cls-4{fill:#d85aa3;}.cls-3{fill:#fff;}.cls-4,.cls-5{fill-rule:evenodd;}.cls-5,.cls-6{fill:#085eaa;}</style></defs><title>logo</title><circle class="cls-1" cx="50" cy="50" r="50"/><circle class="cls-2" cx="50" cy="50" r="47.61"/><circle class="cls-3" cx="50" cy="50" r="42.89"/><path class="cls-4" d="M33,18.23c6-.21,11.76.86,14.86,4.79a10.39,10.39,0,0,1,2.07,5c.57,4.66-2.69,7.43-6.19,9a12.91,12.91,0,0,1,5,2.61,6.69,6.69,0,0,1,2.22,5A10.34,10.34,0,0,1,49.88,49c-2.36,4.7-8.86,6.44-15.73,6.29l0-2.92a9.57,9.57,0,0,0,6.54-1.72,6,6,0,0,0,2.14-4.48,4.3,4.3,0,0,0-.77-2.52c-1.34-1.87-4.25-2.63-6.86-2.77L35,36.48c4-.13,7.24-2.63,6.84-6.21C41.58,28,39.38,27,37.33,26.61a16.25,16.25,0,0,0-4-.36Z"/><path class="cls-5" d="M31.65,19.7c.44,11,.64,23.56,1.05,35.1-1.35.09-2.64.11-4,.18-2.15-11.3-4.42-22.25-6.57-33.73Z"/><path class="cls-4" d="M62.64,18.58c-1.45,12.27-2.56,24.59-3.91,37.06-1.81-.22-3.64-.29-5.23-.54L54.33,18Z"/><path class="cls-5" d="M61.14,44.09c.22-1.46.37-3,.57-4.46,2.4-.61,4.75-1.56,6-3.17a5,5,0,0,0,.34-5c-1-1.74-3.19-2.55-5.24-3l.8-8.57c4,.19,7.79,1.17,10.36,3.33a10.81,10.81,0,0,1,3.12,10.9c-1.11,4.18-4.45,7-8.85,8.78L72.48,54.3,68,55.11Z"/><path class="cls-5" d="M59.89,61.24c-.55-.46-1.1-.92-1.62-1.42l-4.11,4c.15-2.24.37-4.42.45-6.71L52.24,57c-.16,4.16-.5,8.18-.69,12.31L56,65l2.36,3.3,2-1.34-2.63-3.59Z"/><path class="cls-5" d="M50.88,61.24c-.81.11-1.88.61-1.87,1.47a8.78,8.78,0,0,0,.86,2.1c.54,1.17,1.32,2.26.61,3.49a4.92,4.92,0,0,1-3.38,2c-.27-.44-.43-1-.7-1.48.8-.16,1.93-.6,1.94-1.48a6,6,0,0,0-.83-1.89,14.13,14.13,0,0,1-.83-1.89c-.6-2.26,1.43-3.16,3.41-3.82l.14,0A7.41,7.41,0,0,1,50.88,61.24Z"/><path class="cls-5" d="M73.37,71.52c.2.53.46,1,.64,1.55-.74.16-1.85.5-1.87,1.39a7,7,0,0,0,.77,2c.51,1.22,1.35,2.77.54,4a4.63,4.63,0,0,1-3.19,1.64,12.49,12.49,0,0,1-.64-1.55c.77-.16,1.88-.54,1.86-1.46a9.32,9.32,0,0,0-.86-2.16c-.39-.94-1.1-1.92-.83-3C70.1,72.65,71.57,71.82,73.37,71.52Z"/><path class="cls-6" d="M76.56,73.18a1.8,1.8,0,0,1,.85.29,1.64,1.64,0,0,1,.61.7,1.77,1.77,0,0,1-.12,1.77,1.67,1.67,0,0,1-.7.61,1.77,1.77,0,0,1-1.76-.12,1.66,1.66,0,0,1-.61-.7A1.77,1.77,0,0,1,75,74a1.64,1.64,0,0,1,.7-.6A1.8,1.8,0,0,1,76.56,73.18Zm0,.35a1.44,1.44,0,0,0-.71.13,1.32,1.32,0,0,0-.56.48,1.42,1.42,0,0,0-.1,1.42,1.34,1.34,0,0,0,.49.56,1.42,1.42,0,0,0,1.41.1,1.35,1.35,0,0,0,.56-.49,1.41,1.41,0,0,0,.1-1.42,1.33,1.33,0,0,0-.49-.56A1.45,1.45,0,0,0,76.54,73.53Zm-1,2.3L75.7,74l.38,0,.6,0a.75.75,0,0,1,.29.1.47.47,0,0,1,.16.19.53.53,0,0,1,.05.27.49.49,0,0,1-.16.34.61.61,0,0,1-.38.15l.13.08a.92.92,0,0,1,.12.15l.12.24.19.39-.47,0-.13-.31a1.24,1.24,0,0,0-.23-.4.42.42,0,0,0-.26-.1H76l-.05.76Zm.45-1h.15a1.9,1.9,0,0,0,.41,0,.24.24,0,0,0,.13-.08.24.24,0,0,0,.06-.14.22.22,0,0,0,0-.14.25.25,0,0,0-.12-.1,1.8,1.8,0,0,0-.4-.05h-.15Z"/><path class="cls-5" d="M31,60.79a4.35,4.35,0,0,0-2.1.89l-.47-3.47-2.32.31,1.54,11.37,2.32-.31-.12-.91a4.35,4.35,0,0,0,2.26.3A4.13,4.13,0,1,0,31,60.79Zm.81,6a1.91,1.91,0,1,1,1.78-2.17A2,2,0,0,1,31.77,66.76Z"/><path class="cls-5" d="M44.44,74.07a3.92,3.92,0,0,0-2,.49l.09-3.16-2.11-.06-.28,10.35,2.11.06,0-.83a3.92,3.92,0,0,0,2,.59,3.72,3.72,0,1,0,.2-7.44Zm-.15,5.44a1.73,1.73,0,1,1,1.9-1.67A1.8,1.8,0,0,1,44.29,79.51Z"/><path class="cls-5" d="M52.8,72.32a3.93,3.93,0,0,0-2,.6l-.09-3.16-2.11.06.29,10.35L51,80.11l0-.83a3.92,3.92,0,0,0,2,.48,3.72,3.72,0,1,0-.21-7.44ZM53,77.76A1.73,1.73,0,1,1,54.76,76,1.8,1.8,0,0,1,53,77.76Z"/><path class="cls-5" d="M36.37,65.37a4.2,4.2,0,0,0,3.91,4.47,4.35,4.35,0,0,0,2.24-.41l-.08.92,2.33.2.67-8.9-2.33-.2v1A4.35,4.35,0,0,0,41,61.62,4.2,4.2,0,0,0,36.37,65.37Zm2.21.19a2.06,2.06,0,1,1,1.89,2.07A2,2,0,0,1,38.57,65.55Z"/><path class="cls-5" d="M31.62,77.68A3.94,3.94,0,1,0,35,73.46,3.84,3.84,0,0,0,31.62,77.68Zm1.91-.26a2,2,0,0,1,4-.54,1.68,1.68,0,0,1-.39,1.3,2.11,2.11,0,0,1-1.36.74A1.91,1.91,0,0,1,33.54,77.42Z"/><rect class="cls-6" x="55.2" y="74.82" width="6.85" height="2.14" transform="translate(-20.74 129.74) rotate(-86.47)"/><ellipse class="cls-6" cx="59.01" cy="70.93" rx="1.18" ry="1.29" transform="translate(-15.41 125.47) rotate(-86.48)"/><rect class="cls-6" x="61.5" y="61.48" width="2.39" height="7.63" transform="matrix(1, -0.03, 0.03, 1, -2.1, 2.08)"/><polygon class="cls-5" points="71.27 65.43 71.42 61.47 73.8 61.56 73.38 70.66 67.96 65.16 67.82 69.13 65.43 69.03 65.86 59.93 71.27 65.43"/><polygon class="cls-5" points="66.58 76.11 66.72 72.33 68.83 72.38 68.58 81.09 63.48 75.66 63.53 79.34 61.25 79.25 61.45 70.21 66.58 76.11"/><path class="cls-6" d="M29.38,72.47l-.08-1-2.64.24.89,9.65,2.59-.23-.36-3.89c-.22-1.77.49-3.31,2.35-3.09l-.2-2.39A3.56,3.56,0,0,0,29.38,72.47Z"/><ellipse class="cls-6" cx="62.46" cy="59.44" rx="1.41" ry="1.32" transform="translate(-2.73 3.01) rotate(-2.7)"/></svg>